<svg width="118" height="178" viewBox="0 0 118 178" fill="none" xmlns="http://www.w3.org/2000/svg">
<g clip-path="url(#clip0_5056_4519)">
<path d="M26.93 107.67C27.02 106.32 27.25 102.49 24.84 100.79C23.04 99.52 20.71 100.1 18.78 100.59C17.55 100.89 12.95 102.05 12.06 105.48C11.8668 106.348 11.9047 107.251 12.17 108.1C10.7961 108.896 9.71053 110.107 9.07002 111.56C8.65813 112.621 8.48574 113.761 8.56526 114.896C8.64478 116.032 8.9742 117.136 9.52998 118.13C10.1473 119.422 11.2136 120.446 12.53 121.01C14.66 121.8 16.78 120.69 18.32 119.86C19.17 119.35 26.46 115.24 26.93 107.67Z" fill="#FEF3ED"/>
<path d="M25.29 116.28L34.56 121.51L38.46 112.58L26.14 108.7L25.29 116.28Z" fill="#FD9E8A"/>
<path d="M31.1698 110.28L26.1698 108.7L25.3198 116.28L26.8898 117.16C29.2398 115.66 30.5198 113.03 31.1698 110.28Z" fill="#221735"/>
<path d="M22.5198 131.63C20.6294 131.629 18.7506 131.335 16.9499 130.76C14.6248 130.023 12.4676 128.836 10.6015 127.265C8.73534 125.695 7.19677 123.772 6.07365 121.607C4.95052 119.442 4.26483 117.077 4.0557 114.647C3.84658 112.217 4.11812 109.77 4.85484 107.445C5.59155 105.12 6.77901 102.963 8.3494 101.097C9.9198 99.2304 11.8424 97.6919 14.0074 96.5688C16.1724 95.4456 18.5374 94.7599 20.9674 94.5508C23.3974 94.3417 25.8448 94.6132 28.1698 95.35C32.401 96.6845 36.0145 99.4897 38.3564 103.258C40.6982 107.026 41.6135 111.508 40.9367 115.893C40.2599 120.277 38.0357 124.275 34.6667 127.162C31.2976 130.048 27.0065 131.633 22.5699 131.63H22.5198ZM22.5198 95.32C18.0565 95.3183 13.7571 97.002 10.4819 100.034C7.20661 103.066 5.19711 107.224 4.85532 111.674C4.51354 116.124 5.86466 120.539 8.63847 124.036C11.4123 127.533 15.4041 129.853 19.8154 130.533C24.2267 131.213 28.732 130.202 32.43 127.703C36.128 125.204 38.746 121.4 39.7601 117.054C40.7742 112.707 40.1097 108.138 37.8996 104.26C35.6894 100.383 32.0965 97.4824 27.8398 96.14C26.1286 95.5985 24.3447 95.322 22.5498 95.32H22.5198Z" fill="#FEF3ED"/>
<path d="M110.81 67.1001C103.28 76.5001 81.05 100.79 79.49 102.1C77.62 103.64 65.39 122.1 59.61 124.23C53.83 126.36 49.61 127.37 49.61 127.37C49.61 127.37 55.4 136.79 58.56 143.42C59.76 145.93 60.56 148.04 60.56 149.09C60.5264 149.719 60.3484 150.331 60.04 150.88C58.14 154.64 51.46 159.42 48.92 160.44C45.92 161.64 40.21 163.64 40.21 163.64L37.07 160.1L46.5 148.56C46.5 148.56 35.85 137.05 34.83 134.69C33.81 132.33 33.17 120.76 33.17 120.76L34.3 110.86C34.3 110.41 37.05 98.8601 37.64 98.0501C38.23 97.2401 33.64 91.05 32.74 87.97C31.84 84.89 32.17 79.1001 32.17 79.1001C32.17 79.1001 23.44 76.8601 21.04 75.5401C19.1423 74.2996 17.4374 72.7867 15.98 71.0501L16.65 66.7301C16.65 66.7301 26.23 66.8801 28.59 67.7301C29.97 68.2401 32.83 69.3201 35.15 70.3201C36.36 70.7679 37.509 71.3659 38.57 72.1001C38.9524 72.6082 39.2872 73.1505 39.57 73.72C41.79 77.87 46.71 88.4 46.71 88.4C46.71 88.4 51.71 84.7401 52.62 83.16C53.53 81.58 59.16 65.6501 61.02 61.7901C62.88 57.9301 70.53 48.2301 70.53 48.2301C70.53 48.2301 66.07 41.1501 65.46 37.2301C64.85 33.3101 65.94 21.0201 65.94 21.0201L72.69 18.5601C72.69 18.5601 79.04 32.4801 82.69 41.1001C83.6492 43.2072 84.4873 45.3673 85.2 47.5701C85.1618 48.5709 84.9799 49.561 84.66 50.5101C82.41 58.8401 74.07 81.0801 74.07 81.0801C74.07 81.0801 86.26 68.7401 89.18 66.2301C92.1 63.7201 98.7 60.1401 98.7 60.1401C98.7 60.1401 96.79 52.4 96.92 48.87C97.05 45.34 100.4 32.25 100.4 32.25L106.27 31.8801C106.27 31.8801 110.14 47.6801 112.14 56.9901C112.684 59.1393 113.071 61.3249 113.3 63.53C113.25 63.91 112.33 65.1901 110.81 67.1001Z" fill="#FEF3ED"/>
<path d="M39.2698 157.37L33.4598 163.21C33.4598 163.21 26.6698 165.54 26.4598 166.64C26.2498 167.74 30.6098 166.64 30.5098 167.31C30.4098 167.98 24.1798 172.5 24.3598 172.97C24.5398 173.44 24.9498 174.17 25.5298 174.18C26.1098 174.19 30.3598 170.26 30.3598 170.26C30.3598 170.26 26.5198 174.79 26.6098 175.26C26.6998 175.73 27.9898 176.85 28.6098 176.51C29.2298 176.17 31.7798 171.79 31.7798 171.79C31.7798 171.79 29.4898 176.79 30.1098 177.14C30.7298 177.49 31.8698 177.79 32.1098 177.14C32.3498 176.49 33.5798 171.73 34.1098 171.71C34.6398 171.69 32.9498 176.07 33.5898 176.48C34.2298 176.89 35.5898 176.78 35.4298 176.12C35.5084 174.429 35.7733 172.753 36.2198 171.12C36.4198 170.76 38.2998 169.12 38.2898 168.4C38.2964 167.917 38.3602 167.437 38.4798 166.97L44.3798 162.2C42.6865 160.567 40.9831 158.957 39.2698 157.37Z" fill="#F0664D"/>
<path d="M18.1701 73.3499L11.1701 70.0999C11.1701 70.0999 4.01012 69.4699 3.55012 68.4499C3.09012 67.4299 7.55009 67.4499 7.33009 66.8199C7.11009 66.1899 -0.06988 63.3199 -0.00987996 62.8199C0.05012 62.3199 0.270086 61.51 0.830086 61.36C1.39009 61.21 6.4701 63.9999 6.4701 63.9999C6.4701 63.9999 1.65013 60.53 1.63013 60.08C1.61013 59.63 2.63009 58.2 3.27009 58.39C3.91009 58.58 7.48011 62.1999 7.48011 62.1999C7.48011 62.1999 4.06009 57.9399 4.58009 57.4099C5.10009 56.8799 6.12009 56.3599 6.58009 56.9199C7.04009 57.4799 9.3101 61.8099 9.7801 61.7199C10.2501 61.6299 7.61013 57.7199 8.13013 57.2199C8.65014 56.7199 9.97013 56.4399 10.0001 57.1199C10.4916 58.7491 11.1624 60.3187 12.0001 61.8C12.2901 62.1 14.4901 63.2299 14.6701 63.9399C14.7903 64.4069 14.9684 64.8571 15.2001 65.2799L22.0701 66.52L18.1701 73.3499Z" fill="#F0664D"/>
<path d="M65.6799 23.84L62.8699 13.94C62.8699 13.94 60.5899 12.49 60.3399 11.2C60.0899 9.90998 59.8999 8.84997 59.8999 8.84997C59.8999 8.84997 77.1699 -1.21003 77.1699 0.0999712C77.1699 1.40997 77.6699 2.67998 76.1699 4.72998C74.6699 6.77998 70.8099 12.38 70.8099 12.38L73.6899 20.83L65.6799 23.84Z" fill="#F0664D"/>
<path d="M99.35 34.53L99.53 24.24C99.53 24.24 97.76 22.24 97.9 20.89C98.04 19.54 98.16 18.52 98.16 18.52C98.16 18.52 117.56 13.87 117.22 15.15C116.88 16.43 116.95 17.76 114.92 19.29C112.89 20.82 107.57 25.1 107.57 25.1L107.89 34.01L99.35 34.53Z" fill="#F0664D"/>
<path d="M27.0301 107.1C28.0563 108.374 28.6818 109.923 28.8274 111.552C28.9731 113.181 28.6325 114.817 27.8486 116.252C27.0647 117.688 25.8728 118.858 24.4235 119.617C22.9742 120.375 21.3327 120.686 19.7065 120.511C18.0803 120.336 16.5425 119.683 15.2874 118.635C14.0323 117.586 13.1164 116.188 12.6555 114.619C12.1946 113.05 12.2093 111.379 12.6979 109.818C13.1864 108.257 14.1268 106.876 15.4001 105.85C16.2458 105.168 17.2175 104.66 18.2596 104.354C19.3018 104.048 20.3941 103.95 21.4741 104.066C22.5541 104.182 23.6006 104.51 24.5539 105.03C25.5073 105.551 26.3487 106.254 27.0301 107.1Z" fill="#FD9E8A"/>
<path d="M18.4899 116.46C18.6168 116.495 18.7247 116.579 18.7903 116.693C18.8558 116.807 18.8736 116.943 18.8399 117.07C18.8133 117.163 18.7601 117.245 18.6868 117.308C18.6135 117.37 18.5235 117.41 18.4279 117.421C18.3323 117.433 18.2355 117.416 18.1494 117.373C18.0633 117.33 17.9918 117.262 17.9439 117.179C17.896 117.095 17.8737 116.999 17.8799 116.903C17.8861 116.807 17.9205 116.715 17.9787 116.638C18.037 116.562 18.1165 116.504 18.2074 116.472C18.2983 116.44 18.3966 116.436 18.4899 116.46Z" fill="#221735"/>
<path d="M19.6599 112.21C19.7223 112.226 19.781 112.255 19.8324 112.294C19.8838 112.333 19.927 112.382 19.9595 112.437C19.9921 112.493 20.0133 112.555 20.0219 112.619C20.0306 112.683 20.0265 112.748 20.0099 112.81C19.9937 112.874 19.9649 112.933 19.9252 112.985C19.8856 113.038 19.8358 113.081 19.7789 113.114C19.722 113.147 19.6592 113.168 19.5941 113.175C19.529 113.183 19.4629 113.178 19.3999 113.16C19.2748 113.123 19.1693 113.038 19.1057 112.924C19.0422 112.81 19.0258 112.676 19.0599 112.55C19.076 112.488 19.1045 112.429 19.1437 112.378C19.1829 112.327 19.2319 112.285 19.2879 112.253C19.3438 112.221 19.4056 112.201 19.4695 112.194C19.5334 112.186 19.5981 112.192 19.6599 112.21Z" fill="#221735"/>
<path d="M24.29 103.1C24.7231 103.219 25.111 103.464 25.4047 103.804C25.6983 104.144 25.8845 104.564 25.9397 105.009C25.9949 105.455 25.9167 105.907 25.7148 106.309C25.5129 106.71 25.1965 107.042 24.8056 107.264C24.4147 107.485 23.9669 107.585 23.519 107.552C23.071 107.519 22.643 107.354 22.2891 107.077C21.9351 106.8 21.6713 106.425 21.5308 105.998C21.3904 105.572 21.3796 105.113 21.5 104.68C21.5787 104.393 21.7133 104.124 21.8963 103.888C22.0793 103.653 22.307 103.456 22.5663 103.31C22.8256 103.163 23.1115 103.069 23.4073 103.033C23.7031 102.997 24.0031 103.02 24.29 103.1Z" fill="#FD9E8A"/>
<path d="M23.2698 104.03C23.1463 104.363 23.1109 104.722 23.167 105.072C23.223 105.422 23.3687 105.752 23.5898 106.03C23.6156 106.056 23.6477 106.074 23.6829 106.084C23.718 106.094 23.7551 106.094 23.7905 106.085C23.8258 106.076 23.8581 106.058 23.8843 106.032C23.9105 106.007 23.9296 105.975 23.9398 105.94C23.961 105.793 24.0129 105.652 24.0922 105.526C24.1714 105.4 24.2762 105.293 24.3998 105.21C24.4442 105.178 24.4763 105.132 24.4909 105.079C24.5054 105.026 24.5015 104.97 24.4798 104.92C24.4506 104.872 24.4044 104.838 24.3506 104.823C24.2967 104.808 24.2393 104.814 24.1898 104.84C23.9828 104.986 23.8118 105.178 23.6898 105.4C23.5242 104.996 23.5242 104.544 23.6898 104.14C23.702 104.087 23.6933 104.031 23.6653 103.985C23.6373 103.938 23.5923 103.904 23.5398 103.89C23.4854 103.874 23.427 103.88 23.3767 103.906C23.3264 103.932 23.2881 103.976 23.2698 104.03Z" fill="#221735"/>
<path d="M16.7602 116.18C16.7045 116.18 16.6511 116.202 16.6117 116.242C16.5723 116.281 16.5502 116.334 16.5502 116.39C16.5353 116.899 16.6452 117.403 16.8702 117.86C16.8827 117.884 16.9 117.906 16.9211 117.923C16.9422 117.94 16.9667 117.953 16.9929 117.961C17.0191 117.968 17.0466 117.97 17.0737 117.967C17.1007 117.963 17.1267 117.954 17.1501 117.94C17.1978 117.911 17.2326 117.865 17.2475 117.811C17.2623 117.757 17.2561 117.699 17.2301 117.65L17.1601 117.5V117.42C17.1208 117.313 17.0907 117.202 17.0702 117.09V116.92C17.0745 116.894 17.0745 116.867 17.0702 116.84C17.0702 116.72 17.0702 116.61 17.0702 116.49C17.1113 116.449 17.1344 116.393 17.1344 116.335C17.1344 116.277 17.1113 116.221 17.0702 116.18C17.0291 116.139 16.9733 116.116 16.9151 116.116C16.857 116.116 16.8013 116.139 16.7602 116.18Z" fill="#221735"/>
<path d="M18.78 110.56C18.4604 110.67 18.1714 110.854 17.9368 111.098C17.7021 111.341 17.5284 111.637 17.43 111.96C17.4174 112.014 17.4259 112.071 17.4537 112.12C17.4816 112.168 17.5267 112.204 17.58 112.22C17.6342 112.233 17.6913 112.224 17.7396 112.196C17.7878 112.168 17.8237 112.123 17.84 112.07C17.9111 111.822 18.0383 111.594 18.2117 111.403C18.3851 111.213 18.6001 111.064 18.84 110.97C18.8932 110.954 18.9383 110.918 18.9662 110.87C18.994 110.821 19.0026 110.764 18.99 110.71C18.9752 110.666 18.947 110.628 18.9093 110.601C18.8716 110.574 18.8263 110.56 18.78 110.56Z" fill="#221735"/>
<path d="M22.4502 115.39L21.5802 116.22C21.3802 116.41 21.1102 116.68 20.8002 116.66C20.4902 116.64 20.2302 116.25 20.0602 116L19.3402 115C19.1902 114.78 18.8202 115 18.9702 115.2L19.8002 116.4C19.9032 116.586 20.0465 116.746 20.2196 116.868C20.3926 116.991 20.591 117.074 20.8002 117.11C20.987 117.114 21.1726 117.079 21.3449 117.007C21.5172 116.934 21.6724 116.826 21.8002 116.69C22.1502 116.39 22.4802 116.05 22.8002 115.69C22.84 115.644 22.8597 115.583 22.855 115.522C22.8503 115.461 22.8216 115.405 22.7752 115.365C22.7287 115.325 22.6684 115.305 22.6075 115.31C22.5465 115.315 22.49 115.344 22.4502 115.39Z" fill="#221735"/>
<path d="M25.1699 113.26C25.132 113.301 25.1108 113.354 25.1108 113.41C25.1108 113.466 25.132 113.519 25.1699 113.56C25.3421 113.763 25.4653 114.002 25.5299 114.26C25.59 114.516 25.59 114.783 25.5299 115.04C25.5143 115.093 25.5203 115.15 25.5465 115.199C25.5727 115.247 25.6171 115.284 25.6699 115.3C25.7242 115.313 25.7812 115.304 25.8295 115.276C25.8777 115.248 25.9136 115.203 25.9299 115.15C26.0075 114.822 26.0053 114.48 25.9235 114.153C25.8417 113.826 25.6827 113.523 25.4599 113.27C25.4221 113.231 25.371 113.209 25.317 113.207C25.2629 113.205 25.2103 113.224 25.1699 113.26Z" fill="#221735"/>
<path d="M10.9901 104.21L10.29 103.76C11.7598 101.493 13.9038 99.7441 16.42 98.7599C18.3616 98.0153 20.4568 97.7611 22.52 98.0199L22.42 98.8399C20.2002 98.5659 17.9481 98.9268 15.925 99.8808C13.902 100.835 12.1908 102.343 10.9901 104.23V104.21Z" fill="#FEF3ED"/>
<path d="M21.17 128.85C19.1648 128.835 17.1977 128.301 15.46 127.3L15.87 126.57C17.9488 127.783 20.38 128.249 22.76 127.89C24.5629 127.599 26.2567 126.836 27.67 125.68L28.2 126.33C26.6672 127.572 24.8368 128.392 22.89 128.71C22.3215 128.805 21.7462 128.851 21.17 128.85Z" fill="#FEF3ED"/>
<path d="M49.5798 127.55C49.4698 127.55 38.0198 123.76 33.8198 127.55L33.5498 127.24C35.3898 125.58 38.6798 125.07 43.3198 125.72C45.4867 126.028 47.6241 126.517 49.7098 127.18L49.5798 127.55Z" fill="#221735"/>
<path d="M35.0102 134.76L34.6602 134.53C36.0202 132.42 39.2001 130.92 44.0901 130.07C46.381 129.681 48.6971 129.461 51.0201 129.41V129.83C50.8901 129.83 38.1702 129.95 35.0102 134.76Z" fill="#221735"/>
<path d="M46.6301 148.69L46.3701 148.36C46.7001 148.1 54.4601 141.98 58.1601 142.24V142.66C54.6001 142.39 46.7101 148.62 46.6301 148.69Z" fill="#221735"/>
<path d="M58.9602 152.55C55.7802 149.55 46.1103 150.25 46.0103 150.26V149.85C46.4103 149.85 56.0102 149.1 59.2802 152.25L58.9602 152.55Z" fill="#221735"/>
<path d="M37.1698 100.1L36.7798 99.97C36.7798 99.88 40.0398 90.87 46.5798 88.22L46.7498 88.15L48.9098 91.73L48.5498 91.94L46.5498 88.67C40.3198 91.34 37.1698 100.02 37.1698 100.1Z" fill="#221735"/>
<path d="M36.9098 95.5999L36.5498 95.3999C36.5498 95.3399 39.8198 89.3499 45.3498 87.0599L45.5098 87.45C40.1098 89.68 36.9398 95.5399 36.9098 95.5999Z" fill="#221735"/>
<path d="M31.9599 79.1C31.9599 78.82 31.01 72.33 33.87 69.78L34.1499 70.09C31.4599 72.49 32.36 78.97 32.37 79.09L31.9599 79.1Z" fill="#221735"/>
<path d="M32.2802 81.2L31.9302 80.97C32.1302 80.67 36.7202 73.61 40.0002 74.32L39.9102 74.73C36.9102 74.1 32.3302 81.1 32.2802 81.2Z" fill="#221735"/>
<path d="M40.5298 119.73L39.7598 102.66L43.9098 99.62L44.4598 116L40.5298 119.73Z" fill="#CBC3E0"/>
<path d="M63.2299 121.53C63.2299 121.38 61.9699 106.53 60.1499 100.67C58.3299 94.81 50.2099 85.79 50.1499 85.67L50.4599 85.4C50.5399 85.49 58.7199 94.63 60.5699 100.53C62.4199 106.43 63.6499 121.33 63.6599 121.48L63.2299 121.53Z" fill="#221735"/>
<path d="M65.64 119.1C65.64 118.97 65.08 106.1 62.64 99.4699C60.2 92.8399 51.8901 84.1999 51.8101 84.0999L52.11 83.8099C52.19 83.8999 60.5101 92.5499 63.0001 99.2899C65.4901 106.03 66.0001 118.91 66.0001 119.04L65.64 119.1Z" fill="#221735"/>
<path d="M53.4598 81.4799L53.2998 81.0999C53.4298 81.0399 66.3998 75.4599 74.4398 79.7099L74.2498 80.08C66.3898 75.92 53.5898 81.4199 53.4598 81.4799Z" fill="#221735"/>
<path d="M75.0402 78.26C65.8302 71.39 55.4301 76.58 55.3301 76.64L55.1401 76.27C55.2401 76.21 65.8602 70.89 75.2902 77.92L75.0402 78.26Z" fill="#221735"/>
<path d="M77.8099 104.36L77.3999 104.28C80.5199 88.2799 75.3999 79.75 75.3999 79.67L75.7599 79.45C75.7899 79.53 80.9599 88.17 77.8099 104.36Z" fill="#221735"/>
<path d="M82.8199 98.88H82.4099C83.5299 87.88 76.6598 78.61 76.5898 78.52L76.9199 78.27C76.9899 78.32 83.9599 87.67 82.8199 98.88Z" fill="#221735"/>
<path d="M69.6701 46.77L69.3701 46.48C70.777 45.1015 72.303 43.85 73.9301 42.74C77.4201 40.39 80.3201 39.6 82.5201 40.41L82.3801 40.8C77.4001 38.99 69.7401 46.69 69.6701 46.77Z" fill="#221735"/>
<path d="M83.5901 53.54C81.4901 49.27 70.0202 49.2 69.9102 49.2V48.78C70.3902 48.78 81.7502 48.85 83.9102 53.36L83.5901 53.54Z" fill="#221735"/>
<path d="M98.4798 59.01L98.2798 58.65C98.7098 58.41 108.94 52.76 111.86 55.03L111.6 55.36C108.9 53.26 98.5798 58.95 98.4798 59.01Z" fill="#221735"/>
<path d="M108.82 69.34C107.47 64.45 97.9799 60.77 97.8799 60.74L98.0298 60.35C98.4298 60.5 107.82 64.14 109.22 69.22L108.82 69.34Z" fill="#221735"/>
<path d="M115.326 14.854L98.9238 19.0897L99.0288 19.4964L115.431 15.2607L115.326 14.854Z" fill="#221735"/>
<path d="M75.2047 0.357333L61.2271 9.82092L61.4625 10.1687L75.4402 0.705117L75.2047 0.357333Z" fill="#221735"/>
<path d="M60.0901 150.86C58.0901 149.78 56.1702 147.77 56.4502 146.01C56.6064 145.449 56.8784 144.927 57.2487 144.477C57.619 144.028 58.0794 143.661 58.6001 143.4C59.8001 145.91 60.6001 148.02 60.6001 149.07C60.5696 149.698 60.3951 150.31 60.0901 150.86Z" fill="#CBC3E0"/>
<path d="M39.5301 73.73C37.7501 74.36 35.6301 74.43 34.9701 73.57C34.4901 72.95 34.5901 71.57 35.1501 70.35C36.3586 70.7884 37.5076 71.3763 38.5702 72.1C38.9392 72.6129 39.2605 73.1585 39.5301 73.73Z" fill="#CBC3E0"/>
<path d="M110.81 67.1C108.52 64.79 106.67 61.35 107.71 59.27C108.36 57.97 110.19 57.11 112.12 56.99C112.664 59.1392 113.051 61.3249 113.28 63.53C113.25 63.91 112.33 65.19 110.81 67.1Z" fill="#CBC3E0"/>
<path d="M84.6399 50.51C81.7999 49.13 78.82 46.22 79.27 44.05C79.53 42.81 80.94 41.64 82.67 41.1C83.6292 43.2071 84.4672 45.3673 85.18 47.57C85.1418 48.5708 84.9599 49.5609 84.6399 50.51Z" fill="#CBC3E0"/>
<path d="M38.5698 138.47L45.2798 134.68L48.4498 140.07L42.0698 142.88L38.5698 138.47Z" fill="#482060"/>
<path d="M15.3502 104.74C16.1102 104.99 15.8203 107.67 15.4903 110.8C15.2303 113.22 14.5903 119.24 13.3203 119.3C12.3203 119.3 10.7702 115.57 11.1602 111.97C11.5902 107.94 14.3702 104.4 15.3502 104.74Z" fill="#FEF3ED"/>
<path d="M14.2402 115.1L13.9102 114.85C13.9102 114.85 17.2802 110.52 17.7402 108.97C18.2002 107.42 15.9902 105.03 15.9702 104.97L16.2802 104.69C16.3802 104.8 18.6401 107.35 18.1401 109.05C17.6401 110.75 14.3802 114.89 14.2402 115.1Z" fill="#FEF3ED"/>
<path d="M19.3402 105.63C17.7731 105.528 16.223 105.246 14.7202 104.79L14.8402 104.39C16.0302 104.74 19.3402 105.55 20.2402 105.08C21.2629 104.306 22.1457 103.362 22.8502 102.29L23.1902 102.52C22.4534 103.654 21.5185 104.647 20.4302 105.45C20.0844 105.589 19.7123 105.65 19.3402 105.63Z" fill="#FEF3ED"/>
<path d="M12.2601 117.86C11.0678 117.883 9.90474 117.49 8.97002 116.75C7.70002 115.57 7.37006 111.83 8.38006 109.97C9.39006 108.11 12.3201 107.62 12.4401 107.6L12.5101 108.01C12.5101 108.01 9.63005 108.53 8.75005 110.16C7.87005 111.79 8.11005 115.38 9.25005 116.45C10.1456 117.129 11.2465 117.482 12.37 117.45V117.86H12.2601Z" fill="#FEF3ED"/>
</g>
<defs>
<clipPath id="clip0_5056_4519">
<rect width="117.22" height="177.5" fill="white"/>
</clipPath>
</defs>
</svg>
