<svg width="97" height="47" viewBox="0 0 97 47" fill="none" xmlns="http://www.w3.org/2000/svg">
<g clip-path="url(#clip0_5062_1227)">
<path d="M60.3459 42.8109C71.8549 36.3365 76.1997 22.2263 70.0502 11.2949C63.9008 0.363474 49.5857 -3.24962 38.0767 3.22479C26.5677 9.6992 22.2229 23.8094 28.3724 34.7408C34.5219 45.6722 48.8369 49.2853 60.3459 42.8109Z" fill="#FF725E"/>
<g opacity="0.2">
<path opacity="0.2" d="M33.3103 9.38018C35.2579 10.1744 37.3473 10.5624 39.4503 10.5202C39.9603 10.5202 40.0103 9.81018 39.6403 9.63018C38.0103 8.81018 36.4803 7.98018 34.7603 7.30018C34.3003 7.12018 33.8203 6.90018 33.3303 6.68018C32.6887 7.26856 32.081 7.89291 31.5103 8.55018C32.1303 8.83018 32.7403 9.13018 33.3103 9.38018Z" fill="black"/>
<path opacity="0.2" d="M33.9204 13.5902C38.4967 15.4658 43.4171 16.3552 48.3605 16.2002C53.4601 16.0675 58.4899 14.9821 63.1904 13.0002C65.2686 12.1387 67.258 11.0771 69.1304 9.83018C68.6951 9.17252 68.2209 8.5414 67.7104 7.94019C66.1844 9.05534 64.5373 9.99462 62.8004 10.7402C58.908 12.4411 54.7695 13.5112 50.5405 13.9102C46.4997 14.336 42.416 14.0791 38.4604 13.1502C35.9604 12.5402 32.6204 11.6202 30.3704 9.88018C30.0504 10.3002 29.7504 10.7302 29.4604 11.1702C30.8445 12.1531 32.342 12.9656 33.9204 13.5902V13.5902Z" fill="white"/>
<path opacity="0.2" d="M48.8201 4.17008C51.2401 4.26008 55.8201 3.51008 57.8201 1.24008C57.0585 0.980593 56.2842 0.760304 55.5001 0.580078C55.3701 0.68886 55.2331 0.789071 55.0901 0.880077C53.5668 1.77151 51.8525 2.28581 50.0901 2.38008C48.0901 2.56008 44.7301 2.44008 42.4901 1.28008C42.0201 1.44008 41.5401 1.62008 41.0801 1.80008C42.9901 3.52008 46.4601 4.08008 48.8201 4.17008Z" fill="white"/>
<path opacity="0.2" d="M34.0504 22.03C39.6704 23.92 45.6704 24.13 51.6604 23.73C57.1734 23.4444 62.5778 22.0856 67.5704 19.73C69.2081 18.9444 70.7798 18.0281 72.2704 16.99C71.8735 15.2543 71.2621 13.5747 70.4504 11.99C68.416 13.3508 66.244 14.4938 63.9704 15.4C59.6406 17.0261 55.081 17.9576 50.4604 18.16C45.6574 18.5923 40.8159 18.2308 36.1304 17.09C33.8805 16.4566 31.7022 15.592 29.6304 14.51C29.1304 14.23 28.6004 13.93 28.1304 13.63C27.3873 15.1046 26.8007 16.6531 26.3804 18.25C28.742 19.8723 31.3252 21.1454 34.0504 22.03V22.03Z" fill="black"/>
<path opacity="0.2" d="M39.0601 37.4802C35.694 37.1463 32.3535 36.5918 29.0601 35.8202C29.3801 36.3302 29.7301 36.8202 30.0601 37.3102C37.4801 39.3102 45.7401 39.6002 53.2801 39.0802C58.0722 38.7654 62.8254 38.0122 67.4801 36.8302C67.7901 36.4502 68.0901 36.0702 68.3701 35.6702C63.5324 36.8703 58.5888 37.5937 53.6101 37.8302C48.7587 38.1143 43.8921 37.9973 39.0601 37.4802V37.4802Z" fill="black"/>
<path opacity="0.2" d="M49.1301 7.83C52.5759 7.97892 56.0066 7.29277 59.1301 5.83C60.403 5.21792 61.5981 4.45584 62.6901 3.56C62.0883 3.17564 61.4675 2.82186 60.8301 2.5C59.9223 3.27109 58.9128 3.91377 57.8301 4.41C55.1684 5.60603 52.2778 6.20667 49.3601 6.17C45.2501 6.17 40.8001 5.57 37.2101 3.69C36.7301 3.98 36.2701 4.29 35.8101 4.61C39.6701 6.96 45.1801 7.69 49.1301 7.83Z" fill="white"/>
<path opacity="0.2" d="M71.2302 30.3801C69.2764 31.2855 67.2733 32.08 65.2302 32.7601C61.1876 34.1084 57.0035 34.9875 52.7602 35.3801C48.2909 35.7351 43.7952 35.5504 39.3702 34.8301C35.2802 34.1801 30.6802 33.4901 26.9302 31.6401C27.1202 32.1401 27.3202 32.6401 27.5402 33.1301C30.4502 34.4901 34.0602 34.9801 37.0302 35.5601C41.8447 36.569 46.7646 36.9854 51.6802 36.8001C58.0377 36.4595 64.2953 35.0708 70.2002 32.6901C70.2374 32.6289 70.2708 32.5655 70.3002 32.5001C70.6486 31.811 70.9591 31.1032 71.2302 30.3801V30.3801Z" fill="white"/>
<path opacity="0.2" d="M52.0702 33.5101C58.2499 33.0671 64.3228 31.6636 70.0702 29.3501C70.6902 29.0901 71.3102 28.8201 71.9202 28.5301C72.7712 25.7138 73.0633 22.7584 72.7802 19.8301C70.8204 21.0375 68.7553 22.065 66.6102 22.9001C61.6787 24.7622 56.4998 25.8876 51.2402 26.2401C45.8092 26.7291 40.3346 26.2517 35.0702 24.8301C32.2872 24.0453 29.6031 22.9448 27.0702 21.5501C26.6402 21.3001 26.2002 21.0401 25.7702 20.7701C25.3565 23.6204 25.4991 26.524 26.1902 29.3201C28.101 30.2681 30.088 31.0542 32.1302 31.6701C38.6036 33.5233 45.367 34.1474 52.0702 33.5101Z" fill="white"/>
<path opacity="0.2" d="M57.4605 8.35015C55.5205 8.75015 53.8105 9.63015 51.7805 9.79015C49.7505 9.95015 47.5405 9.57015 45.5105 10.1301C45.3132 10.193 45.1426 10.3199 45.0256 10.4906C44.9086 10.6614 44.8519 10.8664 44.8645 11.073C44.8772 11.2796 44.9584 11.4761 45.0953 11.6314C45.2322 11.7866 45.417 11.8918 45.6205 11.9301C47.7805 12.4001 50.6205 11.9901 52.8005 11.7501C54.6205 11.5601 56.8605 10.9201 57.9805 9.37015C58.2605 8.97015 58.1305 8.22015 57.4605 8.35015Z" fill="black"/>
<path opacity="0.2" d="M48.1302 42.4901C47.6847 42.5608 47.2486 42.6816 46.8302 42.8501C46.3902 43.0401 46.4902 43.7501 47.0002 43.6701C47.373 43.6045 47.7524 43.5843 48.1302 43.6101C48.5149 43.6185 48.8989 43.5714 49.2702 43.4701C49.3488 43.465 49.4237 43.4341 49.4831 43.3823C49.5426 43.3306 49.5834 43.2607 49.5993 43.1834C49.6152 43.1062 49.6053 43.0259 49.5712 42.9548C49.537 42.8838 49.4804 42.8259 49.4102 42.7901C49.0331 42.5401 48.579 42.4337 48.1302 42.4901V42.4901Z" fill="white"/>
<path opacity="0.2" d="M61.3902 39.3001C58.7802 39.7201 55.8502 39.5001 53.3902 40.4101C52.8302 40.6201 52.6802 41.5201 53.2902 41.7301C55.9302 42.6501 59.2402 41.9501 61.9802 41.4701L62.6702 41.3501C63.9194 40.4545 65.0872 39.4506 66.1602 38.3501C64.5402 38.7101 62.9702 39.0501 61.3902 39.3001Z" fill="black"/>
<path opacity="0.2" d="M43.0702 42.2702C43.8402 42.0502 43.5802 41.1002 42.9902 40.9402C40.9302 40.3702 38.5702 40.6302 36.4202 40.3402C35.0002 40.1402 33.5902 39.9202 32.1802 39.6602C32.9948 40.4477 33.8672 41.173 34.7902 41.8302C37.4629 42.7056 40.3198 42.8574 43.0702 42.2702Z" fill="white"/>
</g>
<path d="M49.1899 44.5599C48.9491 44.6289 48.7003 44.6659 48.4499 44.6699C47.7839 44.7127 47.1158 44.7127 46.4499 44.6699C44.1919 44.5751 41.9637 44.1193 39.8499 43.3199C38.6945 42.8672 37.5776 42.3221 36.5099 41.6899C35.6454 41.1606 34.8229 40.5655 34.0499 39.9099C33.7199 39.6299 33.4399 39.3599 33.1899 39.1199C32.9758 38.9205 32.7722 38.7102 32.5799 38.4899C32.3966 38.3159 32.2385 38.1174 32.1099 37.8999C32.1099 37.8999 32.8699 38.6499 34.2099 39.7199C34.9899 40.3393 35.8119 40.9039 36.6699 41.4099C37.7294 42.0266 38.8362 42.5583 39.9799 42.9999C42.0585 43.7887 44.2419 44.2672 46.4599 44.4199C48.1299 44.5799 49.1899 44.4999 49.1899 44.5599Z" fill="white"/>
<path d="M70.5902 14.9C70.6502 15.01 70.1702 15.42 69.2302 16.08L68.4402 16.62C68.1402 16.81 67.8102 16.99 67.4402 17.19C66.6428 17.662 65.818 18.0861 64.9702 18.46L63.4902 19.12C62.9702 19.34 62.4102 19.51 61.8402 19.72C60.7002 20.16 59.4402 20.47 58.1202 20.83C55.2251 21.4962 52.2701 21.8681 49.3002 21.94C46.3294 21.9613 43.3641 21.6798 40.4502 21.1C39.1839 20.8314 37.9322 20.4976 36.7002 20.1C36.1202 19.91 35.5602 19.7601 35.0302 19.5501L33.5302 18.94C32.6712 18.5925 31.8331 18.1951 31.0202 17.75C30.6602 17.56 30.3202 17.3901 30.0202 17.2101L29.2102 16.69C28.2102 16.06 27.7602 15.69 27.8202 15.56C27.8802 15.43 28.4902 15.66 29.5302 16.1L30.3902 16.4801C30.7002 16.6101 31.0602 16.73 31.3902 16.87C32.1402 17.15 32.9602 17.5201 33.9302 17.8001L35.4202 18.29C35.9402 18.45 36.4902 18.5701 37.0602 18.7301C38.1802 19.0601 39.4202 19.27 40.7102 19.53C43.5286 20.0026 46.3826 20.2301 49.2402 20.21C52.0922 20.1444 54.933 19.8299 57.7302 19.2701C59.0202 18.9701 60.2502 18.72 61.3602 18.36C61.9202 18.18 62.4702 18.05 62.9902 17.87L64.4602 17.33C65.4602 17.02 66.2302 16.63 66.9702 16.33C67.3402 16.17 67.6902 16.04 67.9702 15.9L68.8202 15.5C69.9202 15.02 70.5302 14.83 70.5902 14.9Z" fill="#FF725E"/>
<path d="M67.57 36.5201L67.66 36.37L67.93 35.93L69.02 34.2401C69.02 34.2401 69.02 34.3 69.02 34.32V34.26L69.18 33.97C70.4072 31.7165 71.2584 29.2778 71.7 26.75L71.77 26.6601C71.77 26.6601 71.67 26.78 71.71 26.82V26.7301C72.322 23.0723 72.0176 19.3199 70.8239 15.8086C69.6302 12.2973 67.5845 9.13686 64.87 6.61005H65.05H64.95L64.86 6.53005C64.0853 5.7822 63.2527 5.09673 62.37 4.48005C58.4639 1.87129 53.821 0.591313 49.13 0.830049C45.2808 0.966888 41.5156 1.99374 38.13 3.83005C35.8536 5.06094 33.7959 6.65908 32.04 8.56005C31.42 9.24005 30.97 9.79005 30.68 10.17L30.34 10.61C30.3012 10.6608 30.2577 10.7076 30.21 10.75C30.7164 9.92933 31.2919 9.15319 31.93 8.43005C33.6628 6.47323 35.7195 4.82924 38.01 3.57005C41.4227 1.68024 45.2317 0.618388 49.13 0.470048C51.4202 0.377148 53.7116 0.623137 55.93 1.20005C58.3189 1.81651 60.578 2.85629 62.6 4.27005C63.4982 4.89744 64.3443 5.59638 65.13 6.36005H64.94H65.04L65.12 6.43005C67.8744 8.99223 69.9441 12.2028 71.1405 15.7694C72.3369 19.3359 72.6221 23.1451 71.97 26.85V26.78C71.97 26.78 71.97 26.9501 71.91 26.9501L71.98 26.86C71.5198 29.4033 70.6269 31.8487 69.34 34.09L69.17 34.37C69.17 34.37 69.17 34.4601 69.17 34.4501C68.68 35.1501 68.3 35.71 68.02 36.1L67.72 36.53C67.61 36.48 67.58 36.5301 67.57 36.5201Z" fill="white"/>
<path d="M25.57 23.23C25.57 22.96 25.57 22.69 25.57 22.42C14.18 23.88 8.65002 25.61 7.43002 26.94C7.34981 27.0069 7.29364 27.0982 7.27002 27.2V27.27C7.27002 27.35 7.38002 27.47 7.43002 27.51C8.35002 28.37 13.96 30.99 47.72 29C68.05 27.8 83.08 24.65 87.72 22.67C87.8472 22.6293 87.9581 22.5492 88.0368 22.4414C88.1155 22.3335 88.1579 22.2035 88.1579 22.07C88.1579 21.9365 88.1155 21.8064 88.0368 21.6986C87.9581 21.5907 87.8472 21.5107 87.72 21.47C85.33 20.84 80.31 20.22 72.72 19.98C72.72 20.19 72.72 20.39 72.72 20.6C78.97 20.82 82.83 21.42 82.85 22.33C82.85 24.15 67.39 26.56 48.25 27.7C29.11 28.84 13.56 28.28 13.52 26.46C13.56 25.46 18.21 24.28 25.57 23.23Z" fill="#FF725E"/>
<path d="M72.48 17.55L72.5401 18.07C82.2301 18.33 89.06 19.24 90.61 20.68C90.8556 20.8858 91.0289 21.1647 91.1044 21.476C91.18 21.7873 91.1539 22.1146 91.03 22.41C90.77 23.04 90.0301 24.96 76.9201 27.41C67.288 29.1636 57.5556 30.3125 47.78 30.85C43.41 31.11 38.78 31.33 34.23 31.46C21.14 31.84 8.84005 31.4601 6.08005 28.8801C5.85501 28.6864 5.67359 28.4472 5.54776 28.1783C5.42192 27.9094 5.35454 27.6169 5.35005 27.32C5.34468 27.0117 5.4022 26.7054 5.51912 26.42C5.63603 26.1346 5.80988 25.876 6.03005 25.66C8.21005 23.29 16.65 21.61 25.75 20.46V20.11C10.43 22.23 0.360047 25.2 0.0200469 27.9C-0.709953 33.7 21.36 34.84 47.91 33.26C74.46 31.68 96.2601 26.03 96.2001 22.17C96.1301 19.61 86.63 17.93 72.48 17.55Z" fill="#FF725E"/>
<path d="M76.8898 22.1301C77.0698 22.1301 75.6198 22.8301 75.5798 22.8401C75.0031 23.0189 74.4151 23.1593 73.8198 23.2601C72.2398 23.6001 70.6398 23.8701 69.0498 24.0801C66.7653 24.2474 64.494 24.5614 62.2498 25.0201C62.1968 25.0201 62.1459 25.0412 62.1084 25.0787C62.0709 25.1162 62.0498 25.1671 62.0498 25.2201C62.0498 25.2732 62.0709 25.324 62.1084 25.3615C62.1459 25.399 62.1968 25.4201 62.2498 25.4201C66.9692 25.6588 71.6913 25.0075 76.1698 23.5001C76.7598 23.3001 77.7098 23.0701 77.7198 22.3001C77.7198 21.7901 77.4198 21.5701 76.9198 21.5901C76.8566 21.595 76.7969 21.6213 76.7506 21.6645C76.7042 21.7078 76.6739 21.7655 76.6646 21.8282C76.6553 21.8909 76.6676 21.955 76.6994 22.0098C76.7312 22.0647 76.7807 22.1071 76.8398 22.1301H76.8898Z" fill="#FF725E"/>
<g opacity="0.3">
<path opacity="0.3" d="M25.57 23.23C25.57 22.96 25.57 22.69 25.57 22.42C14.18 23.88 8.65002 25.61 7.43002 26.94C7.34981 27.0069 7.29364 27.0982 7.27002 27.2V27.27C7.27002 27.35 7.38002 27.47 7.43002 27.51C8.35002 28.37 13.96 30.99 47.72 29C68.05 27.8 83.08 24.65 87.72 22.67C87.8472 22.6293 87.9581 22.5492 88.0368 22.4414C88.1155 22.3335 88.1579 22.2035 88.1579 22.07C88.1579 21.9365 88.1155 21.8064 88.0368 21.6986C87.9581 21.5907 87.8472 21.5107 87.72 21.47C85.33 20.84 80.31 20.22 72.72 19.98C72.72 20.19 72.72 20.39 72.72 20.6C78.97 20.82 82.83 21.42 82.85 22.33C82.85 24.15 67.39 26.56 48.25 27.7C29.11 28.84 13.56 28.28 13.52 26.46C13.56 25.46 18.21 24.28 25.57 23.23Z" fill="black"/>
<path opacity="0.3" d="M76.8898 22.1299C77.0698 22.1299 75.6198 22.8299 75.5798 22.8399C75.0031 23.0187 74.4151 23.159 73.8198 23.2599C72.2398 23.5999 70.6398 23.8699 69.0498 24.0799C66.7653 24.2472 64.494 24.5612 62.2498 25.0199C62.1968 25.0199 62.1459 25.0409 62.1084 25.0784C62.0709 25.116 62.0498 25.1668 62.0498 25.2199C62.0498 25.2729 62.0709 25.3238 62.1084 25.3613C62.1459 25.3988 62.1968 25.4199 62.2498 25.4199C66.9692 25.6586 71.6913 25.0073 76.1698 23.4999C76.7598 23.2999 77.7098 23.0699 77.7198 22.2999C77.7198 21.7899 77.4198 21.5699 76.9198 21.5899C76.8566 21.5948 76.7969 21.621 76.7506 21.6643C76.7042 21.7076 76.6739 21.7653 76.6646 21.828C76.6553 21.8907 76.6676 21.9547 76.6994 22.0096C76.7312 22.0644 76.7807 22.1068 76.8398 22.1299H76.8898Z" fill="black"/>
</g>
<g opacity="0.3">
<path opacity="0.3" d="M72.48 17.55L72.5401 18.07C82.2301 18.33 89.06 19.24 90.61 20.68C90.8556 20.8858 91.0289 21.1647 91.1044 21.476C91.18 21.7873 91.1539 22.1146 91.03 22.41C90.77 23.04 90.0301 24.96 76.9201 27.41C67.288 29.1636 57.5556 30.3125 47.78 30.85C43.41 31.11 38.78 31.33 34.23 31.46C21.14 31.84 8.84005 31.4601 6.08005 28.8801C5.85501 28.6864 5.67359 28.4472 5.54776 28.1783C5.42192 27.9094 5.35454 27.6169 5.35005 27.32C5.34468 27.0117 5.4022 26.7054 5.51912 26.42C5.63603 26.1346 5.80988 25.876 6.03005 25.66C8.21005 23.29 16.65 21.61 25.75 20.46V20.11C10.43 22.23 0.360047 25.2 0.0200469 27.9C-0.709953 33.7 21.36 34.84 47.91 33.26C74.46 31.68 96.2601 26.03 96.2001 22.17C96.1301 19.61 86.63 17.93 72.48 17.55Z" fill="black"/>
</g>
</g>
<defs>
<clipPath id="clip0_5062_1227">
<rect width="96.19" height="46.01" fill="white"/>
</clipPath>
</defs>
</svg>
