<svg width="120" height="121" viewBox="0 0 120 121" fill="none" xmlns="http://www.w3.org/2000/svg">
<g clip-path="url(#clip0_5056_4744)">
<path d="M59.62 120.26C92.5472 120.26 119.24 93.3389 119.24 60.13C119.24 26.9211 92.5472 0 59.62 0C26.6928 0 0 26.9211 0 60.13C0 93.3389 26.6928 120.26 59.62 120.26Z" fill="#EBEBEB"/>
<path d="M82.1402 22.95L80.4602 21.66C80.2692 21.5293 80.1089 21.3587 79.9902 21.16C79.9081 20.9179 79.861 20.6654 79.8502 20.41C79.7609 19.9556 79.5079 19.5498 79.1393 19.2697C78.7706 18.9895 78.3119 18.8544 77.8502 18.89C77.4902 17.97 77.4102 16.97 77.0802 16.04C76.9506 15.561 76.6978 15.1242 76.3469 14.7733C75.996 14.4224 75.5592 14.1696 75.0802 14.04C74.6985 14.0317 74.3192 13.978 73.9502 13.88C73.5853 13.6554 73.2494 13.3867 72.9502 13.08C71.8202 12.22 69.8602 12.69 69.1502 11.47C69.0231 11.1593 68.8795 10.8555 68.7202 10.56C68.453 10.2599 68.1063 10.0415 67.7202 9.93C66.3202 9.42 64.7202 8.93001 63.3702 9.48001C62.8892 9.7321 62.3831 9.93319 61.8602 10.08C61.2702 10.17 60.6302 9.95001 60.0902 10.19C59.7602 10.33 59.4902 10.64 59.1402 10.66C58.8887 10.6408 58.647 10.5545 58.4402 10.41C57.0768 9.58023 55.4759 9.22837 53.8902 9.41001C54.0699 9.28036 54.2647 9.17291 54.4702 9.09C54.6202 9.09 54.7902 9.01 54.9502 8.97001C55.3444 8.86563 55.6948 8.63786 55.9502 8.32001L55.8602 8.08001C55.6502 8.22001 55.3602 8.08 55.1602 7.93C54.993 7.7385 54.7621 7.61415 54.5102 7.58001C54.3842 7.60271 54.2604 7.63616 54.1402 7.68C53.6102 7.8 53.1402 7.34 52.5802 7.34C52.4019 7.33842 52.2252 7.37242 52.0602 7.44001C51.2967 7.68674 50.5873 8.07707 49.9702 8.59C49.8975 8.64402 49.8363 8.71201 49.7902 8.79C49.7552 8.90745 49.7552 9.03256 49.7902 9.15001C49.8193 9.36021 49.898 9.56049 50.0197 9.73434C50.1414 9.9082 50.3027 10.0507 50.4902 10.15C50.9043 10.3266 51.3658 10.3583 51.8002 10.24C51.8433 10.2457 51.8871 10.2457 51.9302 10.24C51.6388 10.4741 51.4003 10.7672 51.2302 11.1C51.0643 11.4147 50.9921 11.7704 51.0222 12.1249C51.0524 12.4794 51.1836 12.8178 51.4002 13.1C50.8802 13.45 50.3202 12.64 49.7002 12.58C49.2402 12.58 48.8602 12.91 48.5602 13.25L47.3102 14.66L45.8602 14.22C45.6267 14.1408 45.3737 14.1408 45.1402 14.22C44.9261 14.3449 44.7336 14.5036 44.5702 14.69C44.4306 14.8191 44.2622 14.913 44.0789 14.9636C43.8956 15.0142 43.7029 15.0202 43.5168 14.9811C43.3308 14.9419 43.1568 14.8587 43.0095 14.7385C42.8622 14.6182 42.7458 14.4645 42.6702 14.29C42.774 14.2423 42.8672 14.1744 42.9445 14.0903C43.0218 14.0062 43.0815 13.9075 43.1202 13.8C43.0792 13.6959 43.0051 13.6082 42.9093 13.5504C42.8135 13.4926 42.7014 13.4678 42.5902 13.48C42.6463 13.1664 42.822 12.8867 43.0802 12.7C43.4302 12.46 43.9402 12.36 44.0802 11.97L44.8702 11.45C44.9707 11.3989 45.0567 11.3232 45.1202 11.23C45.1499 11.1856 45.1657 11.1334 45.1657 11.08C45.1657 11.0266 45.1499 10.9744 45.1202 10.93C45.6102 10.42 45.0102 9.17001 45.5402 8.53001C45.7451 8.35656 45.9996 8.25249 46.2673 8.23272C46.535 8.21296 46.8021 8.27853 47.0302 8.42001C47.4819 8.71464 47.9834 8.92473 48.5102 9.04C49.3202 9.1 49.9902 8.45001 50.6002 7.92001C50.8758 7.62665 51.2272 7.41532 51.6155 7.30941C52.0038 7.20351 52.4138 7.20718 52.8002 7.32001C52.5802 7.23001 53.2202 6.21001 53.6002 6.24001C53.8202 6.24001 53.8402 6.62001 54.0202 6.72001C55.1202 7.32 56.5102 6.52001 57.7102 6.39001C59.2332 6.21133 60.7747 6.26867 62.2802 6.56001C62.3802 6.16001 61.9402 5.87 61.5602 5.7C60.2422 5.06205 58.8614 4.56271 57.4402 4.21001C54.8846 3.70228 52.2343 4.00648 49.8602 5.08001C49.299 5.39485 48.6728 5.57621 48.0302 5.61C47.7102 5.61 47.4102 5.48001 47.0902 5.48001C46.5327 5.51828 46.0123 5.7731 45.6402 6.19001C45.1745 6.19663 44.7202 6.33534 44.3302 6.59C44.1502 6.7 43.9702 6.82001 43.8102 6.94001C43.9202 7.09001 44.1502 7.00001 44.3102 6.94001C44.5999 6.78355 44.9146 6.67865 45.2402 6.63L45.0502 6.84C44.6702 7.29 44.1202 7.18 43.5402 7.25C43.3372 7.25471 43.1356 7.28495 42.9402 7.34C42.7402 7.41609 42.5618 7.53964 42.4202 7.7L42.9802 7.04C43.0553 6.97201 43.1148 6.88851 43.1545 6.79528C43.1943 6.70204 43.2132 6.6013 43.2102 6.5C43.4989 6.49435 43.7821 6.41969 44.0361 6.28225C44.2901 6.14482 44.5075 5.94861 44.6702 5.71001C44.715 5.6194 44.7843 5.54318 44.8702 5.49001C45.0302 5.41001 45.2402 5.49001 45.4102 5.49001C45.5802 5.49001 45.6202 5.27 45.7002 5.13C45.9378 4.8023 46.2639 4.54908 46.6402 4.40001L48.4002 3.48001L47.7102 3.38C47.5418 3.38148 47.3741 3.40161 47.2102 3.44001H47.1502C45.203 3.55027 43.3013 4.07171 41.5702 4.97001C41.4253 5.05331 41.275 5.12681 41.1202 5.19001C40.9702 5.19001 40.8202 5.27001 40.6702 5.31001C39.6972 5.5582 38.7547 5.91372 37.8602 6.37001L32.8602 8.84C32.6802 8.93 32.4702 9.08001 32.5202 9.28001L33.5202 9.39001C32.7522 9.57369 32.0304 9.91415 31.4002 10.39C31.219 10.5643 31 10.6944 30.7602 10.77C30.6102 10.77 30.4702 10.77 30.3202 10.77C30.122 10.8282 29.9382 10.927 29.7802 11.06L24.5602 14.92C23.548 15.6196 22.6068 16.4167 21.7502 17.3C20.7071 18.2883 19.741 19.3547 18.8602 20.49C18.2402 21.49 17.8602 22.57 17.1802 23.49L18.6302 22.34C18.862 22.1681 19.0764 21.9738 19.2702 21.76C19.4202 21.58 19.5402 21.38 19.6702 21.19C20.0197 20.7056 20.4005 20.2446 20.8102 19.81C20.9846 19.5904 21.194 19.4012 21.4302 19.25C21.5802 19.15 21.7502 19.09 21.9002 18.98C22.0502 18.87 22.2102 18.66 22.3802 18.51C22.4583 18.4277 22.5569 18.3677 22.6658 18.3361C22.7748 18.3045 22.8902 18.3024 23.0002 18.33C22.8302 18.64 22.6302 18.95 22.4302 19.25C22.3646 19.3555 22.2756 19.4444 22.1702 19.51C22.0476 19.5552 21.92 19.5854 21.7902 19.6C21.2402 19.72 20.9502 20.31 20.7302 20.83H21.3902C21.4072 20.8907 21.4107 20.9545 21.4003 21.0167C21.3899 21.0789 21.366 21.1381 21.3302 21.19C20.8127 22.3047 20.1721 23.3579 19.4202 24.33C19.9348 23.6553 20.2562 22.8533 20.3502 22.01C19.584 22.5494 18.9088 23.2077 18.3502 23.96C18.001 24.4684 17.4722 24.8257 16.8702 24.96C16.8842 24.6966 16.9669 24.4415 17.1102 24.22C16.5002 24.22 16.1102 24.83 15.8102 25.38C15.2602 26.49 14.7002 27.6 14.1402 28.71L13.0702 30.84L12.2302 32.51C12.1635 32.6067 12.1199 32.7173 12.1026 32.8334C12.0852 32.9495 12.0947 33.0681 12.1302 33.18C12.9432 32.382 13.6613 31.4928 14.2702 30.53C14.3685 30.3567 14.4823 30.1927 14.6102 30.04C14.7602 29.89 14.9402 29.77 15.0902 29.63C15.7002 29.08 15.9702 28.2 16.6502 27.75C16.6502 28.41 16.0202 28.88 15.5702 29.38C15.1102 29.8927 14.7688 30.5004 14.5702 31.16C14.5225 31.3781 14.4486 31.5896 14.3502 31.79C14.2302 31.98 14.0602 32.13 13.9402 32.32C13.7383 32.7574 13.6789 33.2471 13.7702 33.72C13.7702 33.72 13.7702 33.78 13.7702 33.8C13.7702 33.82 13.9002 33.8 13.9502 33.8L15.2202 33C15.1949 33.3894 15.2459 33.7801 15.3702 34.15C15.4341 34.3366 15.4548 34.5354 15.4305 34.7312C15.4063 34.9269 15.3377 35.1146 15.2302 35.28C14.5012 35.9199 14.0346 36.8068 13.9202 37.77C13.9519 38.1684 13.9036 38.5692 13.7783 38.9487C13.6529 39.3282 13.4529 39.6788 13.1902 39.98C13.0502 40.09 12.8902 40.19 12.8402 40.35C12.8189 40.5167 12.843 40.686 12.9102 40.84C13.0302 41.46 12.5202 41.99 12.1502 42.5C12.0336 42.6351 11.9512 42.7963 11.9102 42.97C11.8952 43.1297 11.8952 43.2904 11.9102 43.45C11.9369 43.8222 11.8645 44.1949 11.7002 44.53L12.5102 45.02C12.6481 45.0877 12.7707 45.183 12.8702 45.3C12.9485 45.4562 13.0186 45.6164 13.0802 45.78C13.2102 46.01 13.4502 46.18 13.5202 46.43C13.5402 46.5626 13.5402 46.6974 13.5202 46.83C13.4672 47.5254 13.6203 48.221 13.9602 48.83C14.0812 49.0087 14.1756 49.2041 14.2402 49.41C14.3402 49.89 14.0402 50.41 14.2402 50.86C14.0702 50.86 14.1602 51.17 14.2402 51.29C14.3802 51.3897 14.5483 51.4422 14.7202 51.44C14.8061 51.4362 14.8918 51.4513 14.9712 51.4841C15.0507 51.5169 15.122 51.5667 15.1802 51.63C15.3702 51.88 15.1102 52.22 15.0102 52.52C14.9663 52.6699 14.9635 52.8289 15.0023 52.9802C15.041 53.1315 15.1197 53.2696 15.2302 53.38C15.3502 53.5 15.5202 53.61 15.5002 53.78C15.4802 53.95 15.2402 54.03 15.0702 54.12C14.5702 54.37 14.5802 55.12 14.8002 55.62C15.1021 56.0966 15.2997 56.6316 15.3802 57.19C15.6086 57.2189 15.824 57.3123 16.0011 57.4594C16.1782 57.6064 16.3097 57.8009 16.3802 58.02C16.3802 58.16 16.4602 58.34 16.6002 58.39C16.7402 58.44 16.9402 58.27 17.0102 58.09C17.2402 57.47 17.0102 56.72 17.3702 56.16C17.5583 55.9201 17.7656 55.6961 17.9902 55.49C18.1011 55.3842 18.1797 55.2491 18.2169 55.1004C18.254 54.9517 18.2482 54.7955 18.2002 54.65C18.1202 54.49 17.9602 54.37 17.8702 54.22C17.7802 54.07 17.8202 53.79 18.0002 53.77C18.2586 53.9616 18.448 54.2318 18.5402 54.54H19.2302V55.64C19.0245 55.7999 18.8717 56.018 18.7914 56.2658C18.7112 56.5137 18.7073 56.7799 18.7802 57.03C18.8015 57.1118 18.839 57.1885 18.8906 57.2555C18.9421 57.3225 19.0066 57.3784 19.0802 57.42C19.1902 57.47 19.3102 57.48 19.4102 57.52C20.0002 57.75 19.7802 58.92 20.4102 59.04C20.6602 59.04 20.9102 58.91 21.1602 58.93C21.4102 58.95 21.6002 59.06 21.7302 58.93C21.8602 58.8 21.7302 58.66 21.7302 58.53C21.6004 58.1166 21.6004 57.6734 21.7302 57.26C21.499 56.7117 21.3508 56.132 21.2902 55.54L21.4602 55.45C21.7744 55.6765 22.0341 55.9703 22.2202 56.31C22.3202 56.54 22.3502 56.8 22.4702 57.02C22.5239 57.1331 22.6147 57.2245 22.7274 57.2791C22.8402 57.3336 22.9682 57.3481 23.0902 57.32C23.1879 57.2563 23.2652 57.1659 23.313 57.0595C23.3609 56.9532 23.3773 56.8354 23.3602 56.72C23.3254 56.488 23.3254 56.252 23.3602 56.02C23.4502 55.57 23.9502 55.34 24.3602 55.18C24.3602 55.34 24.2102 55.44 24.0802 55.55C23.9575 55.6822 23.8696 55.8427 23.8242 56.0172C23.7788 56.1918 23.7774 56.3748 23.8202 56.55C23.8452 57.1362 24.0474 57.7011 24.4002 58.17C24.5761 58.3982 24.8223 58.562 25.1007 58.6361C25.3791 58.7102 25.6741 58.6905 25.9402 58.58C26.5802 58.25 26.6802 57.4 26.6902 56.67C26.8902 56.57 27.1902 56.49 27.3002 56.67C27.4102 56.85 27.3002 56.98 27.3002 57.14C27.3002 57.3 27.6802 57.62 27.7002 57.91C27.6983 58.0784 27.6382 58.2409 27.5302 58.37C27.3002 58.76 27.1402 59.37 27.5302 59.59C27.6336 59.6462 27.7448 59.6867 27.8602 59.71C28.1289 59.8018 28.363 59.9737 28.531 60.2025C28.6991 60.4314 28.793 60.7062 28.8002 60.99C28.9005 61.017 28.9887 61.0772 29.0504 61.1607C29.1121 61.2443 29.1438 61.3462 29.1402 61.45C29.1355 61.5527 29.0964 61.6509 29.0294 61.7288C28.9623 61.8068 28.8711 61.86 28.7702 61.88C28.6816 61.877 28.5943 61.9015 28.5202 61.95C28.3802 62.09 28.5702 62.38 28.4202 62.51C28.3647 62.5436 28.3038 62.5673 28.2402 62.58C27.9202 62.69 27.9602 63.15 28.0002 63.49C28.0268 63.8717 27.9585 64.2541 27.8015 64.6031C27.6444 64.952 27.4035 65.2567 27.1002 65.49C26.8959 65.6749 26.6367 65.7877 26.3621 65.8112C26.0876 65.8347 25.8129 65.7675 25.5802 65.62C25.3927 65.441 25.2282 65.2395 25.0902 65.02C25.0452 64.9368 24.9802 64.8662 24.901 64.8144C24.8219 64.7626 24.7311 64.7314 24.6368 64.7234C24.5426 64.7155 24.4478 64.7311 24.3611 64.769C24.2744 64.8068 24.1985 64.8655 24.1402 64.94C23.6021 65.3747 23.2053 65.9594 23.0002 66.62C22.9855 66.8488 22.9384 67.0744 22.8602 67.29C22.6947 67.5239 22.5035 67.7386 22.2902 67.93C22.1755 68.0677 22.0906 68.2276 22.0407 68.3997C21.9908 68.5718 21.977 68.7523 22.0002 68.93C22.1902 69.17 21.9102 69.48 21.7802 69.76C21.6212 70.018 21.4776 70.2851 21.3502 70.56C21.1942 71.1798 21.2615 71.8348 21.5402 72.41C21.7495 73.2307 22.1701 73.9823 22.7602 74.59C22.9252 74.7277 23.0989 74.8546 23.2802 74.97C24.0401 75.3991 24.6745 76.0197 25.1202 76.77C25.5602 76.89 26.0602 76.5 26.4502 76.77C26.5838 76.8786 26.6872 77.0198 26.7502 77.18C26.9602 77.59 27.1702 78.01 27.3702 78.42C27.5103 78.7683 27.7376 79.0748 28.0302 79.31C28.1804 79.4223 28.368 79.4724 28.5542 79.4501C28.7404 79.4277 28.9108 79.3346 29.0302 79.19C29.2702 78.81 28.9702 78.28 29.1202 77.85C29.2702 77.42 30.2302 77.14 30.3002 76.53C30.3002 76.28 30.2102 75.96 30.4002 75.79C30.4812 75.7219 30.5771 75.6739 30.6802 75.65C30.841 75.5776 30.9706 75.4502 31.0458 75.2907C31.121 75.1312 31.1367 74.9501 31.0902 74.78C31.8402 74.72 32.7502 74.78 33.0902 75.4C33.1702 75.55 33.3202 75.74 33.4402 75.63C33.2938 74.8178 33.2769 73.9875 33.3902 73.17C33.4547 72.9461 33.475 72.7117 33.4502 72.48C33.3102 71.82 32.3602 71.68 32.0402 71.08C31.7202 70.48 32.3502 69.39 31.8602 68.76C31.5702 68.37 30.9402 68.32 30.7302 67.88C30.6773 67.7193 30.6138 67.5623 30.5402 67.41C30.4252 67.2876 30.2899 67.1861 30.1402 67.11C29.9012 66.8781 29.7238 66.5901 29.6243 66.2723C29.5248 65.9545 29.5061 65.6168 29.5702 65.29C29.7143 64.6311 29.7143 63.9489 29.5702 63.29C29.4606 63.0679 29.38 62.8326 29.3302 62.59C29.322 62.4838 29.3354 62.3771 29.3696 62.2762C29.4038 62.1753 29.458 62.0824 29.529 62.003C29.6 61.9236 29.6863 61.8593 29.7827 61.8141C29.8792 61.769 29.9838 61.7437 30.0902 61.74C30.1961 61.7452 30.2997 61.7732 30.3939 61.8219C30.488 61.8706 30.5706 61.9391 30.6361 62.0225C30.7015 62.106 30.7482 62.2025 30.7731 62.3056C30.798 62.4087 30.8004 62.5159 30.7802 62.62C30.6734 62.8886 30.5096 63.1308 30.3002 63.33C30.1957 63.4338 30.1261 63.5676 30.101 63.7127C30.076 63.8578 30.0966 64.0071 30.1602 64.14C30.2638 64.1644 30.3587 64.2169 30.4344 64.2917C30.5102 64.3664 30.564 64.4606 30.5898 64.5639C30.6156 64.6671 30.6125 64.7755 30.5808 64.8771C30.5492 64.9788 30.4901 65.0697 30.4102 65.14C30.3102 65.21 30.1802 65.25 30.0702 65.33C29.9628 65.4593 29.9041 65.622 29.9041 65.79C29.9041 65.958 29.9628 66.1207 30.0702 66.25C30.2835 66.5118 30.5105 66.7621 30.7502 67C30.8343 67.1564 30.9586 67.2875 31.1102 67.38C31.203 67.3943 31.2974 67.3943 31.3902 67.38H32.1502C32.2425 67.3997 32.3379 67.3997 32.4302 67.38C32.5764 67.3212 32.7066 67.2287 32.8102 67.11C33.225 66.7642 33.6948 66.4904 34.2002 66.3C34.3693 66.2076 34.5577 66.1562 34.7502 66.15C35.1902 66.15 35.4602 66.63 35.7502 66.96C36.2176 67.4137 36.7817 67.7556 37.4002 67.96C37.8003 66.9322 37.8565 65.8024 37.5602 64.74C37.1364 63.9981 36.6038 63.324 35.9802 62.74C35.6795 62.4484 35.4568 62.0858 35.3328 61.6857C35.2087 61.2855 35.1872 60.8606 35.2702 60.45L35.6902 60.23C35.9944 60.364 36.2677 60.5593 36.493 60.8036C36.7184 61.0479 36.8911 61.336 37.0002 61.65C37.1209 62.144 37.2111 62.6449 37.2702 63.15C37.4287 63.9094 37.8079 64.6052 38.3602 65.15V63.39C38.3451 63.3076 38.348 63.223 38.3687 63.1419C38.3894 63.0607 38.4275 62.985 38.4802 62.92C38.5479 62.873 38.6247 62.8407 38.7057 62.8252C38.7866 62.8097 38.8699 62.8113 38.9502 62.83C39.4307 62.889 39.9034 62.9996 40.3602 63.16C40.5029 63.2012 40.6334 63.2768 40.7402 63.38C40.8459 63.537 40.9048 63.7208 40.9102 63.91C40.9902 64.62 41.0002 65.49 40.4002 65.91C39.9602 66.19 39.3002 66.11 38.9902 66.54C38.6802 66.97 38.8302 67.26 38.5602 67.54C38.2902 67.82 38.1802 67.71 38.0802 67.87C37.9802 68.03 38.1402 68.48 38.0802 68.78C38.0202 69.08 37.8602 69.16 37.9302 69.35C38.0002 69.54 38.0802 69.53 38.1702 69.61C38.5902 69.98 38.5002 70.61 38.3702 71.2C38.2402 71.79 38.1702 72.1 38.0602 72.55C38.145 71.6307 37.8965 70.7115 37.3602 69.96C36.8636 69.9983 36.3653 69.9124 35.9102 69.71C35.6824 69.6116 35.4311 69.5809 35.1863 69.6217C34.9415 69.6625 34.7137 69.773 34.5302 69.94C34.4253 70.1187 34.3642 70.3197 34.352 70.5266C34.3398 70.7335 34.3769 70.9403 34.4602 71.13C34.6327 71.5078 34.7311 71.9151 34.7502 72.33C34.7502 72.84 34.3802 73.33 34.6502 73.81L35.2502 74.07C35.5702 74.21 35.9602 74.58 35.7202 74.84C35.4802 75.1 34.9502 74.98 34.9902 75.28C35.01 75.3569 35.0517 75.4264 35.1102 75.48C35.5602 75.96 36.1102 76.59 35.8502 77.21C36.0278 77.1874 36.2083 77.2015 36.3802 77.2514C36.5522 77.3013 36.7122 77.3859 36.8502 77.5C37.6318 78.0323 38.2844 78.7328 38.7602 79.55C38.9102 79.8 39.0402 80.06 39.1902 80.31C39.5302 80.31 39.6202 79.85 39.5902 79.51L39.4102 77.96C39.376 77.5644 39.3057 77.1728 39.2002 76.79C39.0402 76.25 38.7502 75.79 38.5702 75.23C38.4557 74.9735 38.3966 74.6958 38.3966 74.415C38.3966 74.1342 38.4557 73.8565 38.5702 73.6C38.8993 73.8078 39.1797 74.0842 39.392 74.4104C39.6043 74.7367 39.7435 75.1049 39.8002 75.49C39.8002 75.77 39.8002 76.05 39.8902 76.32C40.0202 77.18 40.5902 77.93 40.6902 78.79C40.6886 79.0884 40.7464 79.3841 40.8602 79.66C40.9605 79.8105 41.0897 79.9397 41.2402 80.04L42.9102 81.34C43.0502 81.45 43.1402 81.68 43.3002 81.61C43.0902 80.87 42.8702 80.14 42.6602 79.4L44.0202 80.56C43.9832 80.3885 43.9819 80.2113 44.0163 80.0392C44.0507 79.8672 44.1201 79.7041 44.2202 79.56C44.3291 79.4053 44.4887 79.2936 44.6714 79.2443C44.854 79.195 45.0482 79.2111 45.2202 79.29C45.2984 79.3319 45.3663 79.3906 45.4191 79.462C45.4719 79.5333 45.5082 79.6154 45.5254 79.7024C45.5426 79.7895 45.5403 79.8792 45.5187 79.9653C45.497 80.0513 45.4566 80.1315 45.4002 80.2C45.7487 79.8944 46.1848 79.7066 46.6463 79.6635C47.1078 79.6204 47.5711 79.7242 47.9702 79.96C48.1514 80.108 48.3631 80.2138 48.5902 80.27C49.0202 80.33 49.4602 79.91 49.8502 80.11C50.2402 80.31 50.3202 81.04 50.7602 81C51.0302 81 51.2302 80.64 51.4802 80.72L51.5702 81.36C52.2702 81.29 53.1402 81.06 53.2502 80.36C53.2548 80.2314 53.2749 80.1038 53.3102 79.98C53.3887 79.8175 53.5096 79.6793 53.6602 79.58C54.2322 79.1673 54.6452 78.5707 54.8302 77.89C54.9133 77.5483 54.8786 77.1885 54.7315 76.869C54.5845 76.5495 54.3338 76.2891 54.0202 76.13C53.8502 75.98 54.0202 75.7 54.1902 75.56C54.3602 75.42 54.5802 75.21 54.4802 75.01C54.3802 74.81 54.2702 74.83 54.1902 74.72C53.9602 74.44 54.3002 73.95 54.0702 73.66C53.9702 73.52 53.7902 73.49 53.6502 73.4C53.5558 73.3245 53.4775 73.2307 53.4201 73.1243C53.3627 73.0178 53.3274 72.9009 53.3162 72.7805C53.305 72.6601 53.3181 72.5387 53.3549 72.4235C53.3917 72.3083 53.4513 72.2017 53.5302 72.11C53.8652 71.7488 54.2948 71.4889 54.7702 71.36L56.1102 70.86C56.4602 70.73 56.8702 70.52 56.8802 70.14C56.8902 69.76 56.6902 69.54 56.8802 69.38C57.0702 69.22 57.1802 69.38 57.3302 69.3C57.6802 69.21 57.7402 68.73 57.7102 68.36C57.6802 67.99 57.7102 67.83 57.6602 67.56C57.635 67.4447 57.635 67.3253 57.6602 67.21C57.7402 67 57.9602 66.88 58.1402 66.74C58.3202 66.6 58.4702 66.34 58.3402 66.15L56.5202 66.23C56.2541 66.2674 55.9828 66.2256 55.7402 66.11C55.6818 66.0778 55.6305 66.0342 55.5892 65.9818C55.5479 65.9294 55.5175 65.8693 55.4998 65.805C55.4821 65.7407 55.4775 65.6736 55.4861 65.6074C55.4948 65.5413 55.5166 65.4776 55.5502 65.42L55.1102 65.27V64.27C55.1015 64.1739 55.1188 64.0772 55.1602 63.99C55.216 63.8976 55.2954 63.8217 55.3902 63.77L56.2402 63.2C56.2183 63.3579 56.246 63.5187 56.3195 63.6602C56.3929 63.8018 56.5085 63.917 56.6502 63.99C56.9202 63.99 56.9602 63.6 56.8402 63.36C56.7202 63.12 56.5102 62.88 56.6202 62.63C56.6202 62.55 56.7302 62.48 56.7802 62.39C57.0002 61.97 56.3502 61.49 56.4802 61.03L55.0002 60.64C54.8841 60.4535 54.7537 60.2764 54.6102 60.11C53.182 60.4276 51.7233 60.5886 50.2602 60.59H49.9102C49.8783 60.978 49.9019 61.3686 49.9802 61.75L50.6902 61.16C50.6316 61.9045 50.7095 62.6535 50.9202 63.37C50.9571 63.4588 50.976 63.5539 50.976 63.65C50.976 63.7461 50.9571 63.8413 50.9202 63.93C50.8202 64.08 50.6102 64.13 50.4902 64.27C50.1202 64.68 50.8302 65.35 50.5802 65.84C50.0302 65.84 49.5802 65.08 49.0902 65.33C48.9802 65.39 48.8902 65.51 48.7702 65.54C48.6502 65.57 48.2702 65.28 48.2902 64.99C48.3102 64.7 48.4802 64.45 48.5102 64.16C48.4876 63.7381 48.3964 63.3226 48.2402 62.93C48.2111 62.5326 48.1509 62.138 48.0602 61.75C47.9202 61.37 47.4702 61.06 47.1302 61.26C47.1223 60.898 46.9998 60.5479 46.7802 60.26C43.663 59.7133 40.7234 58.4235 38.2102 56.5L38.0902 56.59C37.815 56.9938 37.7042 57.4873 37.7802 57.97C37.7802 58.45 37.6402 59.04 37.1802 59.17C36.7802 58.86 36.8502 58.17 36.4402 57.86C36.2502 57.72 35.9902 57.7 35.7902 57.56C35.657 57.4308 35.5525 57.275 35.4836 57.1027C35.4147 56.9303 35.3828 56.7454 35.3902 56.56C35.3218 56.2554 35.3223 55.9393 35.3915 55.6348C35.4607 55.3304 35.5969 55.0452 35.7902 54.8C35.8693 54.7298 35.9566 54.6694 36.0502 54.62C32.4802 50.98 50.2602 53.05 50.2602 47.53C50.2602 43.71 49.3802 41.81 48.6602 40.97C50.328 41.4387 52.0593 41.6412 53.7902 41.57C60.5102 41.57 62.8902 23.66 66.5102 28.78C66.6952 28.5931 66.9232 28.4543 67.1742 28.3759C67.4253 28.2975 67.6917 28.2817 67.9502 28.33C69.5602 28.69 69.6802 31.13 71.0802 32H72.9502C73.1157 32.28 73.3584 32.5063 73.6493 32.6518C73.9402 32.7972 74.2669 32.8556 74.5902 32.82C75.038 32.7814 75.4611 32.5988 75.7964 32.2995C76.1317 32.0003 76.3611 31.6005 76.4502 31.16C76.526 30.7096 76.4217 30.2474 76.1598 29.8733C75.8979 29.4991 75.4994 29.2429 75.0502 29.16C74.7719 29.1537 74.4945 29.1269 74.2202 29.08C73.9602 28.99 73.7202 28.71 73.8202 28.45C74.2802 27.81 75.3002 28.05 75.9002 28.54C76.5002 29.03 77.0002 29.73 77.7402 29.96C78.1502 28.87 79.8302 28.59 80.0102 27.44C79.9995 27.1472 80.0297 26.8544 80.1002 26.57C80.3402 25.97 81.2902 25.89 81.4402 25.27C81.4664 25.0013 81.4426 24.7301 81.3702 24.47C81.3168 24.1674 81.3631 23.8557 81.5019 23.5817C81.6407 23.3076 81.8647 23.086 82.1402 22.95Z" fill="#E0E0E0"/>
<path d="M69.1598 32.08C68.9126 31.8964 68.6351 31.7576 68.3398 31.67C68.9125 32.8724 69.3647 34.1286 69.6898 35.42C69.86 35.3072 70.0175 35.1764 70.1598 35.03C70.2136 34.4954 70.1522 33.9555 69.9797 33.4466C69.8072 32.9378 69.5276 32.4718 69.1598 32.08Z" fill="#E0E0E0"/>
<path d="M34.5499 34.54C34.5893 34.5497 34.6305 34.5497 34.6699 34.54C34.7063 34.5456 34.7435 34.5456 34.7799 34.54C34.853 34.5328 34.9268 34.5436 34.9948 34.5715C35.0628 34.5994 35.1229 34.6435 35.1699 34.7C35.2899 34.79 35.4399 34.87 35.5699 34.79C35.6999 34.71 35.6699 34.54 35.6199 34.41C35.55 34.2904 35.5058 34.1576 35.4899 34.02C35.4843 33.9568 35.4843 33.8932 35.4899 33.83C35.5035 33.7155 35.4833 33.5996 35.4317 33.4966C35.3802 33.3935 35.2996 33.3078 35.1999 33.25C35.106 33.1846 34.9943 33.1495 34.8799 33.1495C34.7655 33.1495 34.6538 33.1846 34.5599 33.25C34.6536 33.3513 34.7191 33.4754 34.7499 33.61C34.7618 33.6788 34.7465 33.7495 34.7074 33.8073C34.6682 33.8651 34.6082 33.9055 34.5399 33.92C34.4399 33.92 34.3499 33.85 34.2599 33.83C34.1883 33.8122 34.1127 33.8206 34.0467 33.8536C33.9807 33.8866 33.9287 33.942 33.8999 34.01C34.0649 34.242 34.2894 34.4251 34.5499 34.54Z" fill="#E0E0E0"/>
<path d="M70.1201 10.5901C70.4299 11.074 70.9089 11.4251 71.4636 11.5749C72.0183 11.7247 72.6089 11.6623 73.1201 11.4001C73.1813 11.3717 73.2358 11.3308 73.2801 11.2801C73.4801 11.0501 73.2801 10.6901 73.0901 10.4501C72.6214 10.2288 72.1055 10.1258 71.5877 10.1502C71.0699 10.1747 70.566 10.3257 70.1201 10.5901Z" fill="#E0E0E0"/>
<path d="M64.4801 6.65994L66.0101 6.83994C66.2701 6.83994 66.6201 7.06994 66.4801 7.28994C66.1201 7.21994 65.8201 7.66994 65.9101 8.02994C65.9712 8.20414 66.0702 8.36265 66.1999 8.49405C66.3296 8.62546 66.4867 8.72651 66.6601 8.78994C68.8501 9.78994 71.5001 8.09994 73.7901 8.84994C75.0101 9.24994 75.9301 10.2999 77.1401 10.7399C77.6401 10.9199 78.2901 11.1199 78.3101 11.6499C78.3101 11.7899 78.3101 11.9199 78.3101 12.0599C78.34 12.2665 78.4378 12.4573 78.5881 12.6021C78.7384 12.747 78.9326 12.8377 79.1401 12.8599C79.5541 12.8881 79.9698 12.8713 80.3801 12.8099C81.2465 12.7601 82.0999 13.0386 82.7701 13.5899C82.9601 13.7599 82.6401 13.9899 82.4701 14.1699C82.0801 14.5599 82.5201 15.2899 83.0601 15.3799C83.6134 15.3985 84.1619 15.2709 84.6501 15.0099C85.6083 14.6247 86.6728 14.5963 87.6501 14.9299C88.1342 15.1077 88.5642 15.4072 88.8988 15.7996C89.2333 16.1919 89.4611 16.6639 89.5601 17.1699C89.5835 17.2459 89.5885 17.3264 89.5745 17.4046C89.5606 17.4829 89.5283 17.5567 89.4801 17.6199C89.3785 17.7099 89.2457 17.7566 89.1101 17.7499C88.4814 17.7687 87.8612 17.6012 87.3274 17.2685C86.7936 16.9358 86.3701 16.4527 86.1101 15.8799C86.0669 15.7338 85.9796 15.6046 85.8601 15.5099C85.793 15.4718 85.7173 15.4512 85.6401 15.4499C84.8801 15.4499 84.5001 16.4999 84.8701 17.1699C85.3197 17.7902 85.9756 18.2298 86.7201 18.4099C88.5529 19.2334 90.5878 19.4977 92.5701 19.1699C94.567 19.0647 96.5511 18.787 98.5001 18.3399L97.6001 17.0999C97.1651 16.3908 96.5859 15.781 95.9001 15.3099C94.5201 14.5099 92.6201 14.8799 91.3901 13.8599C91.0754 13.5172 90.7194 13.2149 90.3301 12.9599C90.0142 12.825 89.6737 12.7569 89.3301 12.7599C87.7106 12.6699 86.0869 12.6899 84.4701 12.8199C83.9234 12.922 83.3591 12.8701 82.8401 12.6699C81.9901 12.2399 81.7701 11.1499 81.1901 10.3899C80.6774 9.79815 80.0429 9.32401 79.3301 8.99994L78.1601 8.36994C77.9194 8.22102 77.6606 8.1034 77.3901 8.01994C76.8301 7.85994 76.2301 8.01994 75.6701 7.85994C75.1436 7.73759 74.6449 7.51707 74.2001 7.20994L71.4901 5.60994C71.2153 5.41494 70.9014 5.28188 70.5701 5.21994C69.8501 5.15994 69.1601 5.74994 68.4701 5.53994C68.2326 5.4443 68.0076 5.32005 67.8001 5.16994C67.199 4.81005 66.495 4.66087 65.7995 4.74599C65.104 4.83112 64.4568 5.14569 63.9601 5.63994C63.8883 5.69897 63.8291 5.77192 63.7861 5.85441C63.7431 5.93689 63.7173 6.02721 63.7101 6.11994C63.6901 6.47994 64.1301 6.60994 64.4801 6.65994Z" fill="#E0E0E0"/>
<path d="M114.76 76.78C114.608 76.3238 114.378 75.8974 114.08 75.52C113.773 75.2222 113.438 74.9544 113.08 74.72C111.922 73.8851 111.074 72.6891 110.67 71.32C110.886 71.1676 111.067 70.9711 111.202 70.7436C111.336 70.5161 111.421 70.2626 111.45 70C111.729 68.5445 111.708 67.0474 111.39 65.6C110.98 63.97 110.03 62.73 108.15 63.25C107.939 63.3157 107.721 63.3527 107.5 63.36C106.64 63.3 105.96 62.03 105.21 62.46C104.56 62.15 105.16 61.05 104.76 60.46C104.58 60.18 104.2 60.01 104.21 59.68C104.22 59.35 104.36 59.35 104.43 59.18C104.45 59.0669 104.447 58.9509 104.422 58.839C104.396 58.727 104.348 58.6213 104.281 58.5281C104.214 58.4349 104.129 58.3561 104.031 58.2963C103.933 58.2365 103.824 58.1969 103.71 58.18C103.469 58.1651 103.227 58.1981 102.999 58.277C102.771 58.356 102.56 58.4793 102.38 58.64C102.019 58.9639 101.627 59.2519 101.21 59.5C101.639 59.9522 101.953 60.5004 102.127 61.0987C102.301 61.6971 102.33 62.3284 102.21 62.94C101.386 63.0899 100.536 62.9334 99.82 62.5C99.6832 62.367 99.5196 62.2647 99.3401 62.2C99.1777 62.17 99.01 62.1909 98.86 62.26C97.9531 62.6599 97.1644 63.2867 96.57 64.08L96.42 64.26C96.0299 63.3891 95.3848 62.6569 94.57 62.16C93.94 62.24 93.66 63.02 93.76 63.65C93.86 64.28 94.1901 64.84 94.2501 65.47C93.9901 66.19 92.7201 65.59 92.2501 66.15C92.1425 66.3133 92.0852 66.5045 92.0852 66.7C92.0852 66.8955 92.1425 67.0867 92.2501 67.25C92.4501 67.58 92.75 67.85 92.94 68.19C92.45 68.97 91.94 69.76 91.48 70.55C91.38 70.22 91.2301 69.83 90.9001 69.76C90.5701 69.69 90.14 70.23 90.05 70.69C89.96 71.15 89.81 71.69 89.35 71.8C89.54 72.39 90.5 72.05 90.97 72.43C91.44 72.81 91.2401 73.28 91.2701 73.75C91.3 74.22 91.76 74.75 92.13 74.48C92.2777 74.327 92.3602 74.1226 92.36 73.91C92.6001 72.3467 93.2409 70.8722 94.22 69.63C94.5442 69.3214 94.7555 68.9129 94.82 68.47C94.82 68.09 94.58 67.71 94.72 67.35C94.86 66.99 95.5901 66.91 96.0901 66.71C95.9811 66.916 95.8466 67.1074 95.69 67.28C95.42 67.56 95.07 67.79 94.95 68.16C94.83 68.53 95.02 69.16 94.79 69.52C94.6526 69.7073 94.4874 69.8726 94.3 70.01C93.8507 70.535 93.5963 71.1991 93.58 71.89C93.2496 73.2873 93.2979 74.7476 93.72 76.12C94.092 76.7861 94.4001 77.4858 94.64 78.21C94.25 78.51 93.69 78.21 93.33 77.84C92.97 77.47 92.5401 77.07 92.0601 77.21C91.5801 77.35 91.37 77.74 91.01 77.58C91.1314 77.0703 91.0804 76.5348 90.8651 76.0571C90.6498 75.5795 90.2823 75.1866 89.82 74.94C89.7039 74.8915 89.6063 74.8071 89.5415 74.6991C89.4767 74.5912 89.4482 74.4653 89.4601 74.34C88.9201 74.34 88.68 75 88.57 75.53C88.46 76.06 88.1501 76.73 87.6201 76.64C87.4401 76.64 87.28 76.49 87.1 76.5C86.69 76.5 86.57 77.1 86.22 77.3C85.87 77.5 85.55 77.3 85.22 77.48C84.89 77.66 84.88 77.86 84.69 78.01C84.2 78.4 83.5001 78.01 83.0001 77.67C82.5001 77.33 81.7701 76.97 81.3101 77.39C80.8501 77.81 81.02 78.39 80.73 78.75C80.44 79.11 79.51 79.37 79.42 79.98C79.2221 79.8185 78.9699 79.739 78.7151 79.7575C78.4604 79.7761 78.2224 79.8915 78.05 80.08C78.0634 80.7949 78.2859 81.4902 78.69 82.08C78.3144 82.4837 77.8531 82.798 77.3401 83C77.5568 83.5668 77.8316 84.1097 78.16 84.62C77.66 84.94 77.81 85.81 77.33 86.16C77.05 86.37 76.67 86.31 76.33 86.39C75.99 86.47 75.66 86.86 75.88 87.13C75.8453 87.2482 75.7823 87.3563 75.6965 87.4447C75.6107 87.5332 75.5047 87.5995 75.3876 87.6379C75.2705 87.6762 75.1458 87.6856 75.0243 87.665C74.9027 87.6445 74.788 87.5947 74.69 87.52C74.39 87.15 74.2901 86.62 73.9301 86.3C73.4001 85.83 72.5701 86.02 71.9301 85.74C71.7388 85.6317 71.538 85.5413 71.33 85.47C70.66 85.3 70.04 86.02 69.97 86.72C69.9883 87.4241 70.0959 88.123 70.29 88.8C70.3852 89.1381 70.3822 89.4964 70.2812 89.8328C70.1803 90.1693 69.9856 90.4701 69.72 90.7C69.42 90.88 69.0401 90.93 68.8101 91.2C68.3501 91.74 68.9401 92.52 69.0601 93.2C69.1092 93.6825 69.0405 94.1698 68.86 94.62C68.61 95.4 68.1501 96.34 67.3401 96.28C66.7101 96.28 66.34 95.57 66.11 94.96C65.9831 94.3198 65.6277 93.7476 65.11 93.35C64.11 92.78 62.82 93.92 61.72 93.55L61.9901 94.29C61.4801 94.41 61.3601 95.09 61.4601 95.6C61.6459 96.0912 61.691 96.6246 61.5901 97.14C61.3601 97.72 60.6601 97.93 60.0601 98.07C60.2529 98.743 60.2871 99.4515 60.16 100.14C60.39 100.38 59.88 100.99 59.55 101.05C59.2133 101.059 58.8768 101.022 58.55 100.94C58.2044 100.922 57.8635 101.026 57.5873 101.235C57.3111 101.443 57.1173 101.743 57.04 102.08L59.04 102.66C59.2721 102.75 59.5239 102.778 59.7701 102.74C60.0181 102.661 60.2418 102.52 60.42 102.33C61.99 100.99 64.42 100.38 66.1 101.59C66.43 101.84 66.78 102.16 67.19 102.12C67.4585 102.071 67.7059 101.942 67.9001 101.75C68.5901 101.19 69.36 100.48 69.32 99.58C69.285 99.3413 69.285 99.0987 69.32 98.86C69.45 98.35 70.08 98.17 70.47 97.86C71.39 97.01 70.74 95.48 70.05 94.43L72.64 92.81C72.8536 92.6525 73.1059 92.5557 73.3701 92.53C73.6425 92.5661 73.9047 92.658 74.14 92.8C75.64 93.46 77.29 92.35 78.44 91.19C78.9062 91.7705 79.5495 92.1825 80.2718 92.363C80.9941 92.5436 81.7555 92.4828 82.44 92.19C82.6841 92.4124 82.8336 92.7198 82.8578 93.0491C82.882 93.3784 82.779 93.7044 82.57 93.96C82.1333 94.4527 81.5746 94.8217 80.95 95.03C81.3818 95.5353 81.6808 96.1402 81.82 96.79C81.8791 97.1132 81.8209 97.4469 81.6559 97.731C81.491 98.0151 81.23 98.2311 80.92 98.34L81.29 99.02C81.8092 98.9067 82.3496 98.9414 82.85 99.12C83.0965 99.2208 83.3033 99.3995 83.4387 99.6288C83.5741 99.8581 83.6308 100.125 83.6 100.39C82.73 100.87 81.66 100.51 80.7 100.25C79.74 99.99 78.52 99.96 77.98 100.79C77.6172 101.654 76.9953 102.384 76.2 102.88C76.3679 102.584 76.4353 102.242 76.392 101.905C76.3487 101.568 76.1971 101.254 75.9601 101.01C75.2601 100.61 74.4601 101.32 73.9601 102.01C73.4601 102.7 72.84 103.46 72.07 103.22C71.8 103.14 71.55 102.94 71.2701 102.95C71.124 102.977 70.9853 103.035 70.8629 103.12C70.7406 103.204 70.6374 103.313 70.5601 103.44C70.3028 103.684 70.0968 103.977 69.9542 104.301C69.8117 104.626 69.7355 104.976 69.73 105.33C69.82 106.04 70.8301 106.55 71.2401 105.97C71.0501 105.28 70.9501 104.34 71.5901 103.97C72.2301 103.6 73.0701 104.49 72.9001 105.25C72.7733 105.613 72.5531 105.936 72.2617 106.188C71.9703 106.439 71.618 106.608 71.2401 106.68C70.4884 106.815 69.7492 107.013 69.0301 107.27C68.7401 107.4 68.4701 107.83 68.7501 107.99C69.0259 108.148 69.3527 108.191 69.66 108.11C69.7687 108.411 69.7808 108.738 69.6948 109.047C69.6088 109.355 69.4289 109.629 69.1801 109.83C68.9229 110.013 68.6154 110.111 68.3 110.111C67.9847 110.111 67.6772 110.013 67.42 109.83C66.33 109.03 66.74 107.22 65.94 106.13C65.7754 105.905 65.5624 105.72 65.3166 105.588C65.0708 105.457 64.7986 105.382 64.5201 105.37C63.9398 105.42 63.3859 105.635 62.9236 105.99C62.4612 106.344 62.1096 106.823 61.91 107.37C61.8118 107.607 61.6654 107.822 61.48 108C61.03 108.36 60.3901 108.15 59.8401 108C59.2901 107.85 58.52 107.93 58.38 108.49C59.5621 109.917 61.0812 111.027 62.8 111.72C62.9734 111.768 63.125 111.874 63.23 112.02C63.2804 112.217 63.2804 112.423 63.23 112.62C63.25 112.898 63.3279 113.169 63.4588 113.415C63.5897 113.662 63.7707 113.878 63.9901 114.05C64.3333 114.476 64.7913 114.795 65.3101 114.97C65.4402 114.999 65.5748 115.002 65.7061 114.979C65.8373 114.955 65.9626 114.905 66.0744 114.833C66.1862 114.76 66.2823 114.666 66.3571 114.555C66.432 114.445 66.4839 114.321 66.51 114.19C66.51 113.19 64.63 113.02 64.66 112.01C65.0134 111.841 65.4021 111.759 65.7935 111.771C66.185 111.783 66.5679 111.889 66.91 112.08C67.1268 112.457 67.4207 112.785 67.7727 113.04C68.1247 113.296 68.5267 113.475 68.9524 113.564C69.3782 113.654 69.8181 113.653 70.2433 113.561C70.6686 113.469 71.0695 113.288 71.42 113.03C72.01 112.54 72.42 111.81 73.19 111.59C74.36 111.25 75.3801 112.39 76.4901 112.9C77.9001 113.55 79.5501 113.18 81.0601 112.79L84.88 111.79L82.73 111.52C83.907 111.18 85.019 110.646 86.0201 109.94C85.9893 109.642 85.8592 109.362 85.6507 109.146C85.4422 108.931 85.1673 108.791 84.8701 108.75C86.4901 108.42 86.94 106.19 88.36 105.33C88.8429 105.118 89.3078 104.867 89.7501 104.58C90.0107 104.301 90.2081 103.969 90.3289 103.606C90.4496 103.244 90.491 102.86 90.45 102.48C90.4212 101.59 90.2102 100.716 89.8301 99.9109C89.45 99.106 88.9088 98.3875 88.2401 97.8C89.2783 98.2493 90.4153 98.4216 91.54 98.3C91.54 98.98 92.0201 99.96 92.5901 99.57C92.7395 99.4409 92.8474 99.2704 92.9001 99.08L93.9001 96.5C94.0971 95.8487 94.439 95.2504 94.9001 94.75C95.7201 93.98 97.07 93.88 97.73 92.96C97.63 93.37 98.15 93.69 98.54 93.57C98.73 93.486 98.9013 93.3648 99.0438 93.2137C99.1864 93.0626 99.2973 92.8846 99.3701 92.69C99.8501 91.78 100.03 90.36 99.08 89.99C98.13 89.62 96.8701 90.43 96.5301 89.57C96.4552 89.3393 96.4552 89.0907 96.5301 88.86C96.8343 87.6463 97.4075 86.5165 98.2072 85.5541C99.0069 84.5917 100.013 83.8214 101.15 83.3C101.91 82.96 102.87 82.54 102.87 81.7C103.005 81.7235 103.133 81.7744 103.247 81.8495C103.362 81.9246 103.459 82.0224 103.534 82.1367C103.609 82.2511 103.66 82.3796 103.683 82.5143C103.707 82.649 103.702 82.7871 103.67 82.92C104.264 82.9909 104.862 82.8296 105.34 82.47C104.94 82.18 105.06 81.47 105.4 81.16C105.781 80.8435 106.179 80.5465 106.59 80.27C107.59 79.34 107.76 77.33 109.14 77.11C110.14 77.52 110.05 79.06 109.61 80.11C109.17 81.16 108.61 82.47 109.42 83.29C109.578 82.9273 109.814 82.6039 110.111 82.3429C110.409 82.0819 110.76 81.8897 111.14 81.78C110.79 82.231 110.575 82.7726 110.522 83.3413C110.469 83.9099 110.579 84.4819 110.84 84.99C111.36 83.7199 112.328 82.6846 113.56 82.08C113.5 81.75 113.44 81.42 113.37 81.08C114.28 81.3 115.16 80.42 115.31 79.48C115.373 78.5469 115.183 77.6142 114.76 76.78Z" fill="#E0E0E0"/>
<path d="M32.05 96.72C31.6 96.39 31.05 96.1 30.93 95.55C30.86 95.29 30.88 94.97 30.69 94.79C30.5 94.61 30.1 94.62 29.75 94.63C28.8086 94.6538 27.8774 94.4296 27.05 93.98C26.8222 93.8246 26.5729 93.7033 26.31 93.62C26.0197 93.5604 25.7203 93.5604 25.43 93.62C24.6078 93.8116 23.8413 94.1913 23.1906 94.7292C22.5399 95.2671 22.0229 95.9485 21.68 96.72C21.5778 97.1907 21.3576 97.6278 21.04 97.99C20.8472 98.12 20.6753 98.2784 20.53 98.46C20.4889 98.5351 20.4673 98.6193 20.4673 98.705C20.4673 98.7906 20.4889 98.8749 20.53 98.95C20.643 99.3282 20.8442 99.6742 21.1172 99.9593C21.3902 100.244 21.727 100.461 22.1 100.59C22.38 100.7 22.71 100.79 22.78 101.06C22.8046 101.303 22.8046 101.547 22.78 101.79C22.78 102.4 23.57 102.52 24.01 102.87C24.45 103.22 24.59 104.2 25.1 104.7C25.5903 105.063 26.1722 105.281 26.78 105.33L28.47 105.64C29.157 105.836 29.8796 105.873 30.5829 105.748C31.2863 105.623 31.9522 105.34 32.53 104.92C32.8578 104.65 33.1284 104.317 33.3259 103.941C33.5234 103.565 33.6438 103.153 33.68 102.73C33.6792 102.067 33.5252 101.413 33.23 100.82C33.4434 100.756 33.6384 100.642 33.7985 100.487C33.9586 100.332 34.0792 100.141 34.15 99.93C34.2324 99.591 34.1823 99.2333 34.01 98.93C33.5587 98.0362 32.8834 97.2748 32.05 96.72Z" fill="#E0E0E0"/>
<path d="M88.8601 111.29C89.2605 111.405 89.6848 111.408 90.0867 111.298C90.4887 111.189 90.853 110.972 91.1401 110.67C91.251 110.571 91.325 110.437 91.3501 110.29C91.3591 110.217 91.3405 110.144 91.2978 110.085C91.2552 110.026 91.1917 109.985 91.1201 109.97C90.4201 110.51 89.2301 110.21 88.7201 110.97C88.6919 110.998 88.6715 111.033 88.6609 111.072C88.6504 111.111 88.6501 111.151 88.6601 111.19C88.6844 111.22 88.7148 111.244 88.7493 111.262C88.7838 111.279 88.8216 111.289 88.8601 111.29Z" fill="#E0E0E0"/>
<path d="M84.9399 112.63C84.8092 112.648 84.6834 112.693 84.5699 112.76C84.0899 112.96 83.5699 112.94 83.0499 113.12C82.7417 113.257 82.4499 113.428 82.1799 113.63L80.6299 114.75L84.0199 114.03C84.3131 113.971 84.6008 113.888 84.8799 113.78C85.3299 113.57 85.6899 113.2 86.1299 112.96L85.2699 112.69C85.1656 112.646 85.053 112.626 84.9399 112.63Z" fill="#E0E0E0"/>
<path d="M97.15 19.84C97.0946 19.695 96.9996 19.5685 96.8758 19.4748C96.7521 19.3811 96.6046 19.324 96.45 19.31C96.1367 19.2869 95.8223 19.3347 95.5301 19.45C94.6396 19.7286 93.7891 20.1219 93.0001 20.62C92.7932 20.7387 92.6074 20.8908 92.45 21.07C92.1149 21.6061 91.9936 22.2486 92.11 22.87L94.01 22.81C94.183 22.7949 94.357 22.7949 94.5301 22.81C94.8762 22.8953 95.2117 23.0194 95.5301 23.18C95.9454 23.348 96.3926 23.4231 96.84 23.4C96.9257 23.2785 96.9717 23.1336 96.9717 22.985C96.9717 22.8364 96.9257 22.6914 96.84 22.57C96.6758 22.3279 96.5603 22.0562 96.5001 21.77C96.4301 21.08 97.36 20.52 97.15 19.84Z" fill="#E0E0E0"/>
<path d="M94.7202 29.8099C95.1669 29.8521 95.6109 29.9189 96.0502 30.0099C96.4915 30.0979 96.9494 30.0345 97.3502 29.8299C97.5447 29.7198 97.6966 29.5476 97.7818 29.341C97.867 29.1344 97.8805 28.9052 97.8202 28.6899C97.6426 28.3794 97.3637 28.1393 97.0302 28.0099L96.2202 27.5999C96.0318 27.523 95.8713 27.3905 95.7602 27.2199C95.6102 26.9099 95.8302 26.5499 96.0602 26.2799C96.2902 26.0099 96.5402 25.6899 96.4502 25.3599C96.3847 25.1763 96.2621 25.0186 96.1002 24.9099C95.6546 24.5351 95.1558 24.2284 94.6202 23.9999C94.4164 23.9006 94.1961 23.8396 93.9702 23.8199C93.6672 23.8327 93.369 23.9004 93.0902 24.0199L91.7502 24.5399C91.6065 24.5766 91.4715 24.6415 91.353 24.7307C91.2346 24.82 91.1351 24.9319 91.0602 25.0599C90.9602 25.3299 91.2402 25.7199 91.5002 25.5699C91.7202 26.1299 91.1002 26.6499 90.9502 27.2299C90.9306 27.736 91.0288 28.2396 91.237 28.7012C91.4453 29.1628 91.7579 29.5698 92.1502 29.8899C92.3162 29.9538 92.4923 29.9877 92.6702 29.9899C93.3602 30.0199 94.0402 29.7899 94.7202 29.8099Z" fill="#E0E0E0"/>
<path d="M103.95 21.5001C104.083 21.6217 104.245 21.7076 104.42 21.7501C104.511 21.7644 104.604 21.7461 104.683 21.6985C104.761 21.651 104.821 21.5771 104.85 21.4901C104.851 21.3554 104.805 21.2246 104.72 21.1201L104.2 20.2801C104.054 20.0289 103.868 19.8027 103.65 19.6101C103.539 19.5189 103.404 19.4597 103.262 19.4386C103.119 19.4174 102.974 19.4352 102.84 19.4901C102.782 19.687 102.771 19.8949 102.81 20.0967C102.848 20.2985 102.934 20.4882 103.06 20.6501C103.309 20.98 103.609 21.2671 103.95 21.5001Z" fill="#E0E0E0"/>
<path d="M107.53 26.19C107.809 26.334 108.07 26.5084 108.31 26.71C108.438 26.8803 108.545 27.0648 108.63 27.26C108.917 27.8135 109.341 28.2849 109.86 28.63C109.903 28.2516 109.876 27.8685 109.78 27.5C109.753 27.3621 109.695 27.2322 109.61 27.12C109.483 26.9964 109.334 26.898 109.17 26.83C108.816 26.637 108.522 26.3497 108.32 26C108.247 25.8426 108.16 25.692 108.06 25.55C107.77 25.15 107.27 24.98 106.94 24.61C106.79 24.45 106.68 24.25 106.52 24.11C106.446 24.032 106.35 23.978 106.245 23.9548C106.14 23.9316 106.03 23.9404 105.93 23.98C106.16 24.36 106.39 24.75 106.63 25.13C106.855 25.5411 107.161 25.9018 107.53 26.19Z" fill="#E0E0E0"/>
<path d="M104.16 91.99C104.092 91.935 104.013 91.8957 103.928 91.875C103.844 91.8542 103.755 91.8525 103.67 91.87C103.51 91.93 103.41 92.16 103.53 92.28C103.266 92.3711 102.989 92.4216 102.71 92.43C102.43 92.43 102.13 92.64 102.11 92.93C102.12 93.023 102.12 93.1169 102.11 93.21C102.05 93.39 101.8 93.46 101.77 93.65C101.77 93.7252 101.799 93.7975 101.851 93.8516C101.904 93.9057 101.975 93.9374 102.05 93.94C102.199 93.9357 102.343 93.883 102.46 93.79C102.697 93.587 102.973 93.434 103.27 93.34C103.58 93.34 103.96 93.51 103.93 93.82C104.124 93.7908 104.306 93.7051 104.451 93.5735C104.597 93.4419 104.701 93.2702 104.75 93.08C104.743 92.8649 104.687 92.6543 104.584 92.465C104.482 92.2758 104.337 92.1131 104.16 91.99Z" fill="#E0E0E0"/>
<path d="M98.0501 45.9C98.0207 46.4081 98.0886 46.9172 98.2501 47.4C98.3701 47.83 98.4801 48.26 98.6001 48.69C98.7201 49.12 98.8601 49.55 99.2501 49.69C99.4748 49.7314 99.702 49.7581 99.9301 49.77C100.41 49.88 100.74 50.4 101.23 50.44C101.72 50.48 102.23 49.86 102.23 49.29C102.23 48.72 102.12 48.14 102.23 47.57C102.27 47.2282 102.419 46.9084 102.655 46.658C102.891 46.4077 103.201 46.24 103.54 46.18C103.784 46.1875 104.027 46.1537 104.26 46.08C104.392 45.9764 104.501 45.8464 104.581 45.6984C104.66 45.5503 104.707 45.3874 104.72 45.22C104.875 44.6876 104.875 44.1223 104.72 43.59C104.54 43.1 104.1 42.72 103.99 42.22C103.785 42.1735 103.57 42.2038 103.386 42.3052C103.201 42.4065 103.061 42.5719 102.99 42.77C102.855 43.1869 102.834 43.6323 102.93 44.06C102.93 43.8 101.93 44.53 101.93 44.58C101.663 44.8199 101.34 44.9895 100.991 45.0733C100.642 45.1571 100.277 45.1525 99.9301 45.06C99.0401 44.84 98.2201 44.62 98.0501 45.9Z" fill="#E0E0E0"/>
<path d="M92.3702 63.23C92.6052 63.0031 92.7567 62.7036 92.8002 62.38C92.9629 61.7178 92.9282 61.0226 92.7002 60.38C92.472 59.8373 92.0678 59.3872 91.5525 59.1024C91.0373 58.8175 90.4411 58.7145 89.8602 58.81C89.5502 58.87 89.2002 58.99 88.9302 58.81C88.6602 58.63 88.6202 58.35 88.4002 58.16C88.1802 57.97 87.4502 58.04 87.0702 58.34C86.7438 58.7063 86.341 58.9965 85.8902 59.19C85.7921 58.9964 85.6336 58.84 85.4388 58.7444C85.244 58.6488 85.0234 58.6192 84.8102 58.66C84.592 58.7186 84.4001 58.8493 84.2658 59.0309C84.1314 59.2125 84.0625 59.4342 84.0702 59.66C84.0702 60.23 84.5902 60.66 84.8302 61.17C84.9616 61.4918 85.0172 61.8395 84.9929 62.1863C84.9687 62.533 84.8651 62.8696 84.6902 63.17C84.3267 63.7766 83.8268 64.2902 83.2302 64.67C83.0628 64.7665 82.9166 64.8957 82.8002 65.05C82.6701 65.3706 82.6701 65.7293 82.8002 66.05C83.0202 66.89 83.2802 67.72 83.5702 68.53C84.0202 68.26 84.5702 68.75 84.7902 69.23C85.0102 69.71 85.2602 70.3 85.7902 70.39C86.3202 70.48 86.9402 69.98 87.3702 70.32C87.5102 70.42 87.5902 70.6 87.7502 70.67C87.8199 70.6991 87.8946 70.7141 87.9702 70.7141C88.0457 70.7141 88.1205 70.6991 88.1902 70.67C88.4681 70.5308 88.7118 70.332 88.9039 70.0877C89.096 69.8434 89.2318 69.5597 89.3015 69.2568C89.3713 68.954 89.3733 68.6395 89.3073 68.3358C89.2414 68.032 89.1092 67.7466 88.9202 67.5C89.2804 66.8017 89.841 66.2271 90.5302 65.85C90.7186 65.7685 90.8861 65.6454 91.0202 65.49C91.3602 65.03 90.9302 64.3 91.2702 63.83C91.6102 63.36 92.0102 63.5 92.3702 63.23Z" fill="#E0E0E0"/>
<path d="M94.44 41.7301C93.96 38.6001 91.4901 34.8401 87.5901 34.1901C86.1972 33.8182 84.7201 33.9199 83.3914 34.4793C82.0626 35.0387 80.9576 36.0239 80.2501 37.2801C79.5837 38.5647 79.2913 40.0106 79.4062 41.4532C79.5212 42.8958 80.0387 44.2771 80.9001 45.4401C81.7844 46.5774 82.9267 47.488 84.2325 48.0966C85.5384 48.7052 86.9703 48.9943 88.41 48.9401C89.3221 48.9973 90.2349 48.8386 91.0741 48.4768C91.9134 48.115 92.6554 47.5604 93.24 46.8579C93.8246 46.1554 94.2352 45.325 94.4385 44.434C94.6418 43.543 94.632 42.6166 94.41 41.7301H94.44Z" fill="#E0E0E0"/>
</g>
<defs>
<clipPath id="clip0_5056_4744">
<rect width="119.23" height="120.25" fill="white"/>
</clipPath>
</defs>
</svg>
