<svg width="1440" height="900" viewBox="0 0 1440 900" fill="none" xmlns="http://www.w3.org/2000/svg">
<g clip-path="url(#clip0_5062_1299)">
<rect width="1440" height="900" rx="8" fill="#131529"/>
<path d="M148.569 68.9097C147.471 69.0151 146.456 69.4719 145.719 70.1925C144.981 70.9131 144.574 71.8468 144.574 72.8146C144.574 73.7823 144.981 74.7159 145.719 75.4366C146.456 76.1572 147.471 76.614 148.569 76.7194C149.668 76.614 150.682 76.1572 151.42 75.4366C152.157 74.7159 152.565 73.7823 152.565 72.8146C152.565 71.8468 152.157 70.9131 151.42 70.1925C150.682 69.4719 149.668 69.0151 148.569 68.9097V68.9097Z" fill="#FEF3ED"/>
<path d="M621.256 773.194C620.158 773.299 619.143 773.756 618.406 774.477C617.668 775.197 617.261 776.131 617.261 777.099C617.261 778.067 617.668 779 618.406 779.721C619.143 780.442 620.158 780.898 621.256 781.004C622.354 780.898 623.369 780.442 624.107 779.721C624.844 779 625.252 778.067 625.252 777.099C625.252 776.131 624.844 775.197 624.107 774.477C623.369 773.756 622.354 773.299 621.256 773.194V773.194Z" fill="#FEF3ED"/>
<path d="M145.526 733.631C144.428 733.736 143.413 734.193 142.676 734.913C141.939 735.634 141.531 736.568 141.531 737.535C141.531 738.503 141.939 739.437 142.676 740.157C143.413 740.878 144.428 741.335 145.526 741.44C146.624 741.335 147.64 740.878 148.377 740.157C149.115 739.437 149.522 738.503 149.522 737.535C149.522 736.568 149.115 735.634 148.377 734.913C147.64 734.193 146.624 733.736 145.526 733.631V733.631Z" fill="#FEF3ED"/>
<path d="M46.1848 541.098C45.0097 541.098 43.8827 541.507 43.0518 542.235C42.2209 542.963 41.7544 543.95 41.7544 544.98C41.7544 546.009 42.2209 546.996 43.0518 547.724C43.8827 548.452 45.0097 548.861 46.1848 548.861C47.3598 548.861 48.4869 548.452 49.3178 547.724C50.1487 546.996 50.6152 546.009 50.6152 544.98C50.6152 543.95 50.1487 542.963 49.3178 542.235C48.4869 541.507 47.3598 541.098 46.1848 541.098Z" fill="#FEF3ED"/>
<path d="M1349.9 2.9707C1348.81 3.07613 1347.79 3.53296 1347.05 4.25356C1346.32 4.97416 1345.91 5.90785 1345.91 6.87558C1345.91 7.84331 1346.32 8.777 1347.05 9.4976C1347.79 10.2182 1348.81 10.675 1349.9 10.7805C1351 10.675 1352.02 10.2182 1352.75 9.4976C1353.49 8.777 1353.9 7.84331 1353.9 6.87558C1353.9 5.90785 1353.49 4.97416 1352.75 4.25356C1352.02 3.53296 1351 3.07613 1349.9 2.9707V2.9707Z" fill="#FEF3ED"/>
<path d="M343.729 -13.7713C342.306 -15.0113 340.398 -15.7303 338.391 -15.7822C336.39 -15.7122 334.488 -14.9959 333.053 -13.7713L330.064 -11.1524C328.658 -9.90039 327.838 -8.23157 327.769 -6.47593C327.817 -4.71615 328.64 -3.04075 330.064 -1.79941C330.759 -1.17312 331.589 -0.673146 332.505 -0.328082C333.421 0.0169832 334.405 0.200322 335.402 0.211456C337.402 0.132799 339.3 -0.582168 340.74 -1.79941L343.729 -4.41825C344.456 -5.04871 345.032 -5.79903 345.426 -6.62578C345.819 -7.45254 346.022 -8.33933 346.022 -9.23506C346.022 -10.1308 345.819 -11.0177 345.426 -11.8444C345.032 -12.6712 344.456 -13.4215 343.729 -14.0519V-13.7713Z" fill="#FEF3ED"/>
<path d="M-5.00691 696.593C-7.0739 696.593 -9.05609 697.312 -10.5177 698.592C-11.9792 699.873 -12.8003 701.609 -12.8003 703.42C-12.8003 705.231 -11.9792 706.968 -10.5177 708.248C-9.05609 709.528 -7.0739 710.248 -5.00691 710.248C-2.93992 710.248 -0.95774 709.528 0.503842 708.248C1.96542 706.968 2.78647 705.231 2.78647 703.42C2.78647 701.609 1.96542 699.873 0.503842 698.592C-0.95774 697.312 -2.93992 696.593 -5.00691 696.593V696.593Z" fill="#FEF3ED"/>
<path d="M409.975 861.954C409.255 861.318 408.399 860.813 407.455 860.468C406.512 860.124 405.499 859.946 404.477 859.946C403.454 859.946 402.442 860.124 401.498 860.468C400.554 860.813 399.698 861.318 398.978 861.954L395.989 864.573C395.261 865.208 394.683 865.962 394.289 866.793C393.895 867.623 393.692 868.514 393.692 869.413C393.692 870.313 393.895 871.204 394.289 872.034C394.683 872.865 395.261 873.619 395.989 874.254C397.412 875.489 399.325 876.193 401.327 876.218C403.321 876.156 405.22 875.457 406.665 874.254L409.654 871.588C410.381 870.958 410.957 870.207 411.351 869.381C411.744 868.554 411.947 867.667 411.947 866.771C411.947 865.876 411.744 864.989 411.351 864.162C410.957 863.335 410.381 862.585 409.654 861.954H409.975Z" fill="#FEF3ED"/>
<path d="M787.964 882.624C787.65 881.785 787.1 881.029 786.363 880.426C785.667 879.79 784.806 879.309 783.854 879.023C782.937 878.592 781.905 878.382 780.865 878.415L778.783 878.649C777.475 878.979 776.282 879.59 775.313 880.426L774.139 881.783C773.422 882.827 773.053 884.025 773.071 885.243V886.88C773.009 887.788 773.231 888.693 773.712 889.499C774.026 890.338 774.576 891.094 775.313 891.697C776.009 892.333 776.87 892.814 777.822 893.1C778.765 893.515 779.809 893.724 780.865 893.708L782.893 893.427C784.197 893.114 785.39 892.519 786.363 891.697L787.537 890.294C788.26 889.27 788.631 888.084 788.605 886.88V885.243C788.667 884.335 788.445 883.43 787.964 882.624V882.624Z" fill="#FEF3ED"/>
<path d="M1408.2 402.533C1407.87 401.699 1407.32 400.945 1406.59 400.335C1405.91 399.689 1405.04 399.207 1404.09 398.932C1403.16 398.515 1402.13 398.321 1401.1 398.371L1399.01 398.605C1397.72 398.907 1396.54 399.504 1395.6 400.335L1394.37 401.738C1393.68 402.774 1393.31 403.951 1393.3 405.152V406.648C1393.24 407.556 1393.46 408.461 1393.94 409.267C1394.32 410.09 1394.88 410.838 1395.6 411.465C1396.31 412.092 1397.17 412.585 1398.11 412.915C1399.03 413.336 1400.06 413.53 1401.1 413.476L1403.12 413.242C1404.44 412.924 1405.63 412.311 1406.59 411.465L1407.82 410.109C1408.5 409.055 1408.85 407.86 1408.84 406.648V405.011C1408.87 404.151 1408.64 403.298 1408.2 402.533V402.533Z" fill="#FEF3ED"/>
<path d="M187.697 592.68C164.797 592.68 164.797 623.873 187.697 623.873C210.598 623.873 210.598 592.68 187.697 592.68Z" fill="#FEF3ED"/>
<g clip-path="url(#clip1_5062_1299)">
<path d="M1121.51 562.163L1130.02 557.845C1130.74 557.479 1131.58 557.414 1132.35 557.666C1133.12 557.917 1133.75 558.463 1134.12 559.184L1138.41 567.647L1124.47 574.725L1120.17 566.263C1119.81 565.542 1119.74 564.704 1119.99 563.935C1120.25 563.167 1120.79 562.529 1121.51 562.163Z" fill="#482060"/>
<path d="M1111.83 599.38C1111.83 599.38 1110.06 578.16 1128.45 568.22C1146.84 558.28 1163 573.41 1163 573.41L1111.83 599.38Z" fill="#CBC3E0"/>
<path d="M1201.85 696.128L1190.89 701.695L1196.45 712.663L1207.42 707.096L1201.85 696.128Z" fill="#CBC3E0"/>
<path d="M1109.17 598.571L1166.03 569.71L1220.94 677.893C1222.44 680.835 1222.7 684.25 1221.67 687.386C1220.65 690.522 1218.42 693.123 1215.48 694.616L1180.81 712.213C1177.87 713.706 1174.45 713.969 1171.32 712.945C1168.18 711.92 1165.58 709.692 1164.09 706.75L1109.18 598.567L1109.17 598.571Z" fill="#482060"/>
<path d="M1174.45 750.5C1173.03 733.02 1182.95 715.8 1199.37 707.21C1216.18 698.4 1236.54 700.35 1250.13 712.09L1174.45 750.5Z" fill="#702C8B"/>
<path d="M1215.08 729.887L1212.29 731.299L1220.11 746.69L1222.89 745.278L1215.08 729.887Z" fill="#482060"/>
<path d="M1228.66 747.57C1229.23 748.556 1229.49 749.69 1229.41 750.825C1229.32 751.96 1228.9 753.044 1228.2 753.937C1227.49 754.83 1226.53 755.492 1225.45 755.835C1224.36 756.179 1223.2 756.19 1222.11 755.866C1221.02 755.542 1220.05 754.898 1219.33 754.018C1218.61 753.138 1218.17 752.062 1218.06 750.928C1217.96 749.795 1218.2 748.657 1218.75 747.661C1219.3 746.664 1220.14 745.856 1221.15 745.34C1222.44 744.64 1223.96 744.482 1225.37 744.9C1226.77 745.318 1227.96 746.279 1228.66 747.57V747.57Z" fill="#F5D778"/>
<path d="M1119.01 617.966L1109.6 622.74L1111.87 627.208L1121.28 622.433L1119.01 617.966Z" fill="#FEF3ED"/>
<path d="M1158.71 696.187L1149.3 700.961L1151.9 706.08L1161.31 701.305L1158.71 696.187Z" fill="#FEF3ED"/>
<path d="M1184.39 582.993L1174.98 587.768L1177.25 592.235L1186.66 587.46L1184.39 582.993Z" fill="#FEF3ED"/>
<path d="M1224.09 661.214L1214.68 665.989L1217.28 671.107L1226.69 666.332L1224.09 661.214Z" fill="#FEF3ED"/>
<path d="M1102.15 608.045L1046.01 636.54L1101.98 746.819L1158.12 718.324L1102.15 608.045Z" fill="#FEF3ED"/>
<path d="M1065.24 633.424L1054.06 639.099L1059.74 650.282L1070.92 644.606L1065.24 633.424Z" fill="#CBC3E0"/>
<path d="M1082.35 624.731L1071.16 630.406L1076.84 641.589L1088.02 635.913L1082.35 624.731Z" fill="#CBC3E0"/>
<path d="M1099.18 616.199L1088 621.874L1093.67 633.056L1104.85 627.381L1099.18 616.199Z" fill="#CBC3E0"/>
<path d="M1074.35 651.029L1063.17 656.705L1068.85 667.887L1080.03 662.211L1074.35 651.029Z" fill="#CBC3E0"/>
<path d="M1091.47 642.356L1080.29 648.031L1085.97 659.213L1097.15 653.538L1091.47 642.356Z" fill="#CBC3E0"/>
<path d="M1108.3 633.814L1097.12 639.49L1102.79 650.672L1113.98 644.996L1108.3 633.814Z" fill="#CBC3E0"/>
<path d="M1083.48 668.654L1072.3 674.329L1077.97 685.511L1089.16 679.836L1083.48 668.654Z" fill="#CBC3E0"/>
<path d="M1100.59 659.971L1089.4 665.646L1095.08 676.829L1106.26 671.153L1100.59 659.971Z" fill="#CBC3E0"/>
<path d="M1117.42 651.429L1106.24 657.104L1111.91 668.286L1123.09 662.611L1117.42 651.429Z" fill="#CBC3E0"/>
<path d="M1092.59 686.269L1081.41 691.945L1087.09 703.127L1098.27 697.451L1092.59 686.269Z" fill="#CBC3E0"/>
<path d="M1109.72 677.581L1098.54 683.256L1104.21 694.439L1115.4 688.763L1109.72 677.581Z" fill="#CBC3E0"/>
<path d="M1126.54 669.03L1115.36 674.705L1121.03 685.887L1132.22 680.212L1126.54 669.03Z" fill="#CBC3E0"/>
<path d="M1101.71 703.884L1090.53 709.559L1096.2 720.741L1107.39 715.066L1101.71 703.884Z" fill="#CBC3E0"/>
<path d="M1118.83 695.196L1107.65 700.872L1113.33 712.054L1124.51 706.378L1118.83 695.196Z" fill="#CBC3E0"/>
<path d="M1135.67 686.654L1124.48 692.33L1130.16 703.512L1141.34 697.836L1135.67 686.654Z" fill="#CBC3E0"/>
<path d="M1110.84 721.508L1099.66 727.184L1105.33 738.366L1116.51 732.69L1110.84 721.508Z" fill="#CBC3E0"/>
<path d="M1127.96 712.811L1116.78 718.486L1122.45 729.668L1133.64 723.993L1127.96 712.811Z" fill="#CBC3E0"/>
<path d="M1144.78 704.279L1133.6 709.954L1139.28 721.136L1150.46 715.461L1144.78 704.279Z" fill="#CBC3E0"/>
<path d="M1233.7 541.015L1177.55 569.51L1233.53 679.789L1289.67 651.294L1233.7 541.015Z" fill="#FEF3ED"/>
<path d="M1196.78 566.398L1185.6 572.074L1191.27 583.256L1202.46 577.58L1196.78 566.398Z" fill="#CBC3E0"/>
<path d="M1213.89 557.701L1202.71 563.376L1208.39 574.558L1219.57 568.883L1213.89 557.701Z" fill="#CBC3E0"/>
<path d="M1230.73 549.168L1219.54 554.844L1225.22 566.026L1236.4 560.351L1230.73 549.168Z" fill="#CBC3E0"/>
<path d="M1205.89 584.004L1194.71 589.679L1200.39 600.861L1211.57 595.186L1205.89 584.004Z" fill="#CBC3E0"/>
<path d="M1223.02 575.325L1211.84 581.001L1217.51 592.183L1228.7 586.507L1223.02 575.325Z" fill="#CBC3E0"/>
<path d="M1239.85 566.774L1228.67 572.449L1234.34 583.632L1245.52 577.956L1239.85 566.774Z" fill="#CBC3E0"/>
<path d="M1215.02 601.628L1203.84 607.304L1209.51 618.486L1220.7 612.81L1215.02 601.628Z" fill="#CBC3E0"/>
<path d="M1232.13 592.941L1220.95 598.616L1226.63 609.798L1237.81 604.123L1232.13 592.941Z" fill="#CBC3E0"/>
<path d="M1248.97 584.398L1237.78 590.074L1243.46 601.256L1254.64 595.581L1248.97 584.398Z" fill="#CBC3E0"/>
<path d="M1224.14 619.253L1212.96 624.928L1218.63 636.11L1229.81 630.435L1224.14 619.253Z" fill="#CBC3E0"/>
<path d="M1241.26 610.555L1230.08 616.231L1235.75 627.413L1246.94 621.737L1241.26 610.555Z" fill="#CBC3E0"/>
<path d="M1258.09 602.013L1246.91 607.688L1252.59 618.871L1263.77 613.195L1258.09 602.013Z" fill="#CBC3E0"/>
<path d="M1233.27 636.854L1222.09 642.529L1227.76 653.711L1238.94 648.036L1233.27 636.854Z" fill="#CBC3E0"/>
<path d="M1250.37 628.171L1239.19 633.846L1244.87 645.028L1256.05 639.353L1250.37 628.171Z" fill="#CBC3E0"/>
<path d="M1267.21 619.628L1256.02 625.304L1261.7 636.486L1272.88 630.811L1267.21 619.628Z" fill="#CBC3E0"/>
<path d="M1242.39 654.478L1231.2 660.154L1236.88 671.336L1248.06 665.66L1242.39 654.478Z" fill="#CBC3E0"/>
<path d="M1259.5 645.785L1248.32 651.461L1253.99 662.643L1265.18 656.967L1259.5 645.785Z" fill="#CBC3E0"/>
<path d="M1276.33 637.253L1265.15 642.928L1270.83 654.111L1282.01 648.435L1276.33 637.253Z" fill="#CBC3E0"/>
<path d="M1182.63 602.849L1125.94 631.625L1133.59 646.704L1190.29 617.928L1182.63 602.849Z" fill="#702C8B"/>
<path d="M1192.52 622.303L1135.82 651.078L1139.44 658.203L1196.13 629.427L1192.52 622.303Z" fill="#702C8B"/>
<path d="M1158.73 579.081L1153.6 581.683L1190.4 654.189L1195.53 651.587L1158.73 579.081Z" fill="#CBC3E0"/>
<path d="M1201.4 663.192L1196.28 665.795L1206.89 686.705L1212.02 684.103L1201.4 663.192Z" fill="#CBC3E0"/>
</g>
<g clip-path="url(#clip2_5062_1299)">
<path d="M545.82 785.92C540.29 796.92 526.89 802.32 514.57 801.6C511.72 801.426 508.889 801.008 506.11 800.35C496.96 798.21 488.31 793.75 480.11 788.95C469.46 782.7 459.11 775.7 447.32 771.95C444.872 771.157 442.386 770.489 439.87 769.95C418.35 765.3 394.36 768.17 376.56 755.44C370.56 751.14 365.49 744.75 365 737.37C364.6 731.31 368.68 723.18 375.25 722.07C378.31 721.56 382.1 722.78 385.16 723.07C389.6 723.523 394.047 723.883 398.5 724.15C416.693 725.237 434.946 724.772 453.06 722.76C463.247 721.633 473.363 720.01 483.41 717.89C488.41 716.89 493.54 715.65 498.65 716.1C510.01 717.1 519 725.78 526.86 734.05C533.64 741.18 540.46 748.54 544.68 757.43C548.9 766.32 550.24 777.12 545.82 785.92Z" fill="#221735"/>
<path d="M489.443 779.65C493.863 759.779 481.337 740.087 461.465 735.667C441.594 731.247 421.902 743.773 417.482 763.644C413.062 783.516 425.588 803.208 445.459 807.628C465.331 812.048 485.023 799.522 489.443 779.65Z" fill="#CBC3E0"/>
</g>
<g clip-path="url(#clip3_5062_1299)">
<path d="M561.125 812.91C561.609 814.786 562.757 816.586 564.52 817.365C563.973 816.649 563.665 815.777 563.64 814.874C564.891 817.438 567.065 819.425 569.722 820.431C569.3 819.897 569.069 819.237 569.066 818.555C570.825 820.959 572.694 823.274 574.673 825.501L572.975 819.851C573.737 820.024 574.46 820.338 575.108 820.776C575.087 818.956 574.469 817.193 573.349 815.764C573.868 816.109 574.489 816.265 575.108 816.206C574.37 812.182 572.221 808.557 569.053 805.991C568.322 805.359 567.477 804.874 566.564 804.562C565.748 804.346 564.89 804.342 564.072 804.549C563.253 804.756 562.499 805.169 561.882 805.748C560.686 806.849 560.76 807.823 560.76 809.344C560.73 810.544 560.852 811.742 561.125 812.91V812.91Z" fill="#F0664D"/>
<path d="M582.583 800.713C583.023 802.377 584.034 803.974 585.599 804.668C585.109 804.035 584.833 803.259 584.812 802.456C585.917 804.74 587.849 806.512 590.212 807.407C589.836 806.935 589.629 806.348 589.627 805.743C591.192 807.87 592.851 809.925 594.604 811.91C594.103 810.238 593.6 808.566 593.096 806.893C593.774 807.045 594.417 807.324 594.991 807.716C594.973 806.097 594.421 804.531 593.422 803.261C593.885 803.571 594.442 803.71 594.996 803.655C594.342 800.08 592.436 796.859 589.623 794.577C588.977 794.018 588.231 793.588 587.424 793.312C586.699 793.119 585.937 793.115 585.21 793.299C584.482 793.483 583.813 793.85 583.265 794.365C582.205 795.342 582.271 796.21 582.271 797.559C582.242 798.619 582.347 799.679 582.583 800.713V800.713Z" fill="#F0664D"/>
<path d="M571.946 814.666C571.727 814.005 571.707 813.293 571.891 812.621C572.075 811.949 572.454 811.347 572.98 810.893C572.981 813.288 573.548 815.649 574.635 817.78C575.721 819.911 577.295 821.753 579.228 823.151C578.777 821.962 578.766 820.65 579.197 819.453C580.852 822.484 583.382 824.938 586.452 826.492C586.105 825.971 585.95 825.345 586.012 824.722C587.609 826.418 589.455 827.857 591.487 828.987C592.049 827.017 592.049 824.927 591.487 822.957C592.463 823.122 593.366 823.586 594.072 824.284C594.093 822.591 593.729 820.915 593.008 819.385C592.286 817.855 591.226 816.512 589.908 815.458C591.13 815.552 592.323 815.876 593.426 816.414C593.134 814.679 592.455 813.034 591.441 811.601C590.427 810.168 589.103 808.985 587.569 808.141L590.207 807.699C589.346 805.636 588.081 803.769 586.488 802.209C584.895 800.649 583.006 799.427 580.934 798.616C580.232 798.294 579.459 798.164 578.691 798.24C578.099 798.377 577.538 798.626 577.038 798.974C575.851 799.7 574.69 800.474 573.56 801.284C572.681 801.899 571.278 802.567 571.01 803.633C570.431 805.979 570.358 808.423 570.794 810.8C571.02 812.131 571.407 813.43 571.946 814.666V814.666Z" fill="#F5D778"/>
<path d="M530.573 694.498L512.23 704.258L533.378 744.496L551.721 734.737L530.573 694.498Z" fill="#CBC3E0"/>
<path d="M551.716 734.721L533.376 744.48L538.881 747.431L551.039 740.958L551.716 734.721Z" fill="#FEF3ED"/>
<path d="M513.638 684.473C511.906 685.358 510.802 687.623 511.026 690.415L512.134 704.204L530.549 694.595L519.97 685.748C517.829 683.951 515.371 683.567 513.638 684.473Z" fill="#FEF3ED"/>
<path d="M550.976 741.007L538.883 747.441L562.805 792.955L574.897 786.522L550.976 741.007Z" fill="#702C8B"/>
<path d="M542.245 763.105L541.757 766.538C541.721 766.799 541.754 767.064 541.854 767.308L559.574 809.857L572.325 803.067L546.704 764.724C546.556 764.504 546.353 764.328 546.114 764.215L542.975 762.724C542.903 762.694 542.825 762.68 542.746 762.683C542.668 762.687 542.591 762.707 542.522 762.743C542.452 762.78 542.391 762.831 542.344 762.893C542.296 762.956 542.262 763.028 542.245 763.105V763.105Z" fill="#CBC3E0"/>
<path d="M560.589 753.346L560.123 756.774C560.084 757.036 560.118 757.304 560.22 757.548L577.94 800.094L590.691 793.307L565.07 754.965C564.922 754.745 564.719 754.569 564.48 754.456L561.345 752.948C561.271 752.911 561.189 752.893 561.106 752.895C561.023 752.896 560.941 752.917 560.868 752.956C560.794 752.994 560.731 753.05 560.683 753.117C560.634 753.185 560.602 753.263 560.589 753.346V753.346Z" fill="#CBC3E0"/>
<path d="M572.435 806.522C572.505 807.161 572.773 807.761 573.202 808.237C573.631 808.714 574.198 809.042 574.822 809.176C574.632 808.957 574.494 808.698 574.417 808.418C574.341 808.137 574.329 807.843 574.383 807.557C575.126 809.167 576.805 810.3 578.969 810.654C578.819 810.493 578.711 810.297 578.653 810.084C578.596 809.872 578.591 809.648 578.639 809.433C579.878 810.893 581.212 812.269 582.632 813.552L581.871 809.835C582.475 809.847 583.072 809.973 583.63 810.207C583.748 809.63 583.728 809.033 583.571 808.465C583.415 807.897 583.126 807.375 582.728 806.942C583.204 807.12 583.722 807.148 584.214 807.022C584.162 805.709 583.77 804.434 583.075 803.321C582.381 802.209 581.409 801.299 580.257 800.682C579.649 800.319 578.972 800.09 578.27 800.01C576.915 799.877 575.262 800.488 574.044 801.434C572.826 802.381 572.804 803.023 572.611 804.089C572.422 804.885 572.363 805.707 572.435 806.522V806.522Z" fill="#FD9E8A"/>
<path d="M551.417 758.225L550.929 761.654C550.89 761.916 550.923 762.184 551.026 762.428L568.746 804.973L581.497 798.187L555.876 759.845C555.728 759.625 555.525 759.449 555.286 759.336L552.156 757.827C552.082 757.796 552.002 757.782 551.922 757.786C551.841 757.79 551.763 757.812 551.692 757.85C551.622 757.888 551.56 757.941 551.513 758.006C551.465 758.071 551.432 758.146 551.417 758.225V758.225Z" fill="#FEF3ED"/>
<path d="M534.413 701.802L516.071 711.562L518.881 716.908L537.223 707.148L534.413 701.802Z" fill="#482060"/>
<path d="M538.152 708.915L519.809 718.674L521.215 721.349L539.558 711.59L538.152 708.915Z" fill="#482060"/>
<path d="M528.403 721.462C528.564 721.767 528.631 722.113 528.596 722.456C528.561 722.799 528.426 723.124 528.207 723.389C527.989 723.655 527.697 723.85 527.368 723.948C527.04 724.047 526.69 724.045 526.362 723.944C526.035 723.842 525.744 723.645 525.528 723.378C525.312 723.11 525.18 722.784 525.148 722.44C525.116 722.097 525.186 721.752 525.349 721.449C525.512 721.145 525.761 720.897 526.064 720.737C526.47 720.521 526.944 720.476 527.383 720.613C527.821 720.749 528.188 721.054 528.403 721.462V721.462Z" fill="#702C8B"/>
<path d="M533.301 718.861C533.462 719.166 533.529 719.511 533.494 719.854C533.459 720.198 533.324 720.523 533.105 720.788C532.887 721.054 532.595 721.248 532.266 721.347C531.938 721.446 531.588 721.444 531.26 721.343C530.933 721.241 530.642 721.044 530.426 720.776C530.21 720.509 530.078 720.183 530.046 719.839C530.014 719.496 530.084 719.151 530.247 718.847C530.41 718.544 530.659 718.296 530.962 718.135C531.163 718.028 531.383 717.962 531.609 717.94C531.836 717.919 532.064 717.942 532.281 718.01C532.499 718.077 532.701 718.187 532.876 718.333C533.051 718.479 533.195 718.658 533.301 718.861V718.861Z" fill="#702C8B"/>
<path d="M538.191 716.273C538.351 716.578 538.418 716.923 538.384 717.266C538.349 717.61 538.213 717.935 537.995 718.2C537.776 718.466 537.484 718.66 537.156 718.759C536.828 718.858 536.477 718.856 536.15 718.755C535.822 718.653 535.532 718.456 535.316 718.188C535.1 717.921 534.967 717.595 534.935 717.251C534.903 716.908 534.973 716.563 535.137 716.259C535.3 715.956 535.549 715.708 535.852 715.547C536.258 715.332 536.732 715.287 537.171 715.423C537.609 715.559 537.976 715.865 538.191 716.273V716.273Z" fill="#702C8B"/>
<path d="M567.721 802.514L580.248 796.311L580.908 797.298L568.156 803.553L567.721 802.514Z" fill="#482060"/>
<path d="M566.714 800.094L578.665 793.936L579.153 794.67L567.013 800.815L566.714 800.094Z" fill="#482060"/>
<path d="M579.588 795.32L588.879 790.618L589.306 791.264L579.988 795.922L579.588 795.32Z" fill="#482060"/>
<path d="M557.956 805.964L567.321 801.545L567.545 802.085L558.246 806.659L557.956 805.964Z" fill="#482060"/>
</g>
<g clip-path="url(#clip4_5062_1299)">
<g opacity="0.32">
<path opacity="0.32" d="M998.22 186.99C1008.59 190.07 1018.8 193.43 1028.96 196.87C1039.12 200.31 1049.19 203.87 1059.24 207.51C1069.29 211.15 1079.24 214.87 1089.24 218.68C1099.24 222.49 1109.1 226.33 1118.97 230.27C1138.68 238.17 1158.38 246.09 1177.55 254.91C1187.14 259.32 1196.62 263.91 1205.96 268.73C1208.29 269.94 1210.62 271.17 1212.96 272.4C1215.3 273.63 1217.58 274.9 1219.87 276.19C1224.44 278.75 1229 281.37 1233.42 284.19L1233.23 284.5C1227.86 283.29 1222.61 281.85 1217.4 280.37C1214.78 279.63 1212.2 278.85 1209.61 278.08C1207.02 277.31 1204.45 276.48 1201.88 275.67C1191.63 272.4 1181.52 268.88 1171.51 265.18C1151.51 257.81 1132 249.52 1112.51 241.18C1102.79 237.02 1093.1 232.783 1083.45 228.47C1073.8 224.157 1064.19 219.78 1054.64 215.34C1045.09 210.86 1035.57 206.34 1026.13 201.67C1016.69 197 1007.31 192.27 998.08 187.25L998.22 186.99Z" fill="#F5D778"/>
</g>
<path d="M1144.86 264.06C1154.52 264.06 1162.35 256.23 1162.35 246.57C1162.35 236.911 1154.52 229.08 1144.86 229.08C1135.2 229.08 1127.37 236.911 1127.37 246.57C1127.37 256.23 1135.2 264.06 1144.86 264.06Z" fill="#FD9E8A"/>
</g>
<path d="M527.627 93.0845C527.061 93.1465 526.538 93.415 526.159 93.8386C525.779 94.2622 525.569 94.8111 525.569 95.38C525.569 95.9489 525.779 96.4977 526.159 96.9213C526.538 97.345 527.061 97.6135 527.627 97.6755C528.193 97.6135 528.716 97.345 529.096 96.9213C529.475 96.4977 529.685 95.9489 529.685 95.38C529.685 94.8111 529.475 94.2622 529.096 93.8386C528.716 93.415 528.193 93.1465 527.627 93.0845V93.0845Z" fill="#FEF3ED"/>
<path d="M1201.06 111C1200.49 111.062 1199.97 111.331 1199.59 111.754C1199.21 112.178 1199 112.727 1199 113.295C1199 113.864 1199.21 114.413 1199.59 114.837C1199.97 115.26 1200.49 115.529 1201.06 115.591C1201.62 115.529 1202.15 115.26 1202.53 114.837C1202.91 114.413 1203.12 113.864 1203.12 113.295C1203.12 112.727 1202.91 112.178 1202.53 111.754C1202.15 111.331 1201.62 111.062 1201.06 111V111Z" fill="#FEF3ED"/>
<path d="M366.317 85.1396C365.252 85.1396 364.231 85.5625 363.478 86.3152C362.725 87.0679 362.302 88.0888 362.302 89.1533C362.302 90.2178 362.725 91.2387 363.478 91.9914C364.231 92.7442 365.252 93.167 366.317 93.167C367.381 93.167 368.403 92.7442 369.156 91.9914C369.909 91.2387 370.332 90.2178 370.332 89.1533C370.332 88.0888 369.909 87.0679 369.156 86.3152C368.403 85.5625 367.381 85.1396 366.317 85.1396Z" fill="#FEF3ED"/>
<path d="M497.015 262C495.95 262 494.929 262.423 494.176 263.176C493.423 263.928 493 264.949 493 266.014C493 267.078 493.423 268.099 494.176 268.852C494.929 269.605 495.95 270.027 497.015 270.027C498.08 270.027 499.101 269.605 499.854 268.852C500.607 268.099 501.03 267.078 501.03 266.014C501.03 264.949 500.607 263.928 499.854 263.176C499.101 262.423 498.08 262 497.015 262Z" fill="#FEF3ED"/>
<path d="M245.073 208.822C244.34 208.093 243.356 207.67 242.323 207.639C241.292 207.681 240.312 208.102 239.573 208.822L238.033 210.361C237.309 211.097 236.887 212.078 236.851 213.11C236.876 214.145 237.299 215.129 238.033 215.859C238.391 216.227 238.818 216.521 239.29 216.724C239.762 216.927 240.27 217.035 240.783 217.041C241.813 216.995 242.791 216.575 243.533 215.859L245.073 214.32C245.447 213.949 245.744 213.508 245.947 213.022C246.149 212.536 246.254 212.015 246.254 211.488C246.254 210.962 246.149 210.44 245.947 209.954C245.744 209.468 245.447 209.027 245.073 208.657V208.822Z" fill="#FEF3ED"/>
<path d="M695.152 112.548C683.355 112.548 683.355 130.885 695.152 130.885C706.949 130.885 706.949 112.548 695.152 112.548Z" fill="#FEF3ED"/>
<path d="M175.555 183.805C163.758 183.805 163.73 202.114 175.555 202.114C187.38 202.114 187.352 183.805 175.555 183.805Z" fill="#FEF3ED"/>
<path d="M1413.46 53C1401.66 53 1401.66 71.3365 1413.46 71.3365C1425.25 71.3365 1425.25 53 1413.46 53Z" fill="#FEF3ED"/>
<path d="M1308.86 295C1297.06 295 1297.03 313.309 1308.86 313.309C1320.68 313.309 1320.66 295 1308.86 295Z" fill="#FEF3ED"/>
<g clip-path="url(#clip5_5062_1299)">
<path d="M1013.12 775.069C1015.01 748.837 995.285 726.037 969.053 724.143C942.822 722.249 920.021 741.978 918.127 768.21C916.233 794.441 935.963 817.242 962.194 819.136C988.426 821.03 1011.23 801.3 1013.12 775.069Z" fill="#455A64"/>
<g opacity="0.3">
<path opacity="0.3" d="M986.32 795.85C985.1 797.67 984.85 799.97 984.5 802.14C984.15 804.31 983.5 806.63 981.88 808.04C980.26 809.45 977.2 809.34 976.32 807.33C975.84 806.23 976.11 804.95 975.86 803.78C975.52 802.26 974.35 801.08 973.8 799.62C973.422 798.343 973.264 797.01 973.33 795.68C973.2 788.42 971.55 780.8 966.75 775.42C966.208 774.718 965.481 774.181 964.65 773.87C964.142 773.738 963.606 773.757 963.108 773.926C962.61 774.095 962.173 774.405 961.85 774.82C961.532 775.383 961.168 775.918 960.76 776.42C959.76 777.42 957.91 776.66 957.23 775.42C956.677 774.089 956.524 772.626 956.79 771.21C956.96 769.44 957.12 767.68 957.29 765.91C957.281 764.975 957.56 764.06 958.09 763.29C958.95 762.29 960.47 762.29 961.52 761.5C962.89 760.5 963.09 758.5 963.97 757.01C964.85 755.52 967.53 754.93 967.91 756.61C970.82 750.45 976.99 759.72 980.73 759.08C981.82 758.89 982.88 758.37 983.97 758.54C985.89 758.83 986.86 761.01 987.5 762.88L990.65 772.21C991.05 773.39 991.57 774.71 992.72 775.21C993.59 775.56 994.61 775.31 995.5 775.65C997.83 776.54 997.02 780.29 995.12 781.93C993.22 783.57 990.56 784.58 989.64 786.93C988.94 788.71 989.46 790.81 988.71 792.56C988.15 793.82 987.07 794.72 986.32 795.85Z" fill="black"/>
</g>
<g opacity="0.3">
<path opacity="0.3" d="M936.04 808.93C936.52 809.33 937.04 809.7 937.5 810.07C937.96 810.44 938.28 810.65 938.68 810.93C939.08 811.21 939.48 811.49 939.89 811.75L940.76 812.3L940.64 812.06C939.64 809.7 939.64 806.31 941.87 805.17C942.331 805.011 942.766 804.786 943.16 804.5C944.16 803.5 943.37 801.5 944.39 800.57C944.96 800.04 945.85 800.09 946.55 799.78C947.82 799.2 948.25 797.55 948.16 796.14C947.92 794.746 947.803 793.334 947.81 791.92C948.09 789.79 949.74 787.64 948.81 785.71C947.81 783.55 944.72 783.86 942.58 782.87C939.58 781.49 938.7 777.68 936.77 774.97C935.03 772.55 930.95 769.86 927.82 770.55C926.943 770.67 926.134 771.088 925.529 771.735C924.924 772.381 924.561 773.217 924.5 774.1L924.21 774.05C923.37 773.95 922.39 773.89 921.94 773.18C921.49 772.47 921.94 771.13 921.41 770.32C921.074 769.946 920.675 769.635 920.23 769.4C919.83 769.1 919.48 768.54 919.74 768.1C920 767.66 920.48 767.65 920.74 767.31C920.856 767.169 920.919 766.992 920.919 766.81C920.919 766.628 920.856 766.451 920.74 766.31C919.89 765.26 918.91 767.36 918.43 767.86C918.29 768 918.16 768.12 918.04 768.22C918.035 768.31 918.035 768.4 918.04 768.49C918.04 768.78 918.04 769.07 918.04 769.37C918.04 769.67 918.04 769.95 918.04 770.24V770.96C918.04 771.19 918.04 771.43 918.04 771.67C918.03 771.783 918.03 771.897 918.04 772.01C918.124 777.327 919.056 782.596 920.8 787.62C921.563 789.793 922.489 791.906 923.57 793.94C924.03 794.83 924.57 795.71 925.06 796.57C925.71 797.63 926.54 798.8 927.28 799.8C928.02 800.8 928.68 801.62 929.44 802.53C930.5 803.78 931.62 804.92 932.79 806.06C933.96 807.2 934.94 807.97 936.07 808.88" fill="black"/>
</g>
<g opacity="0.3">
<path opacity="0.3" d="M1010.38 755.31C1010.18 754.817 1010.02 754.308 1009.9 753.79C1008.1 748.51 1003.48 746.08 1000.61 741.95C999.67 740.61 998.95 739.5 997.26 739.22C994.78 738.8 993.5 740.22 991.76 737.8C991.29 737.15 990.46 736.54 989.76 736.92C989.93 737.43 990.12 737.92 990.29 738.48C990.336 738.587 990.357 738.704 990.35 738.82C990.35 739.18 989.78 739.27 989.48 739.07C989.212 738.817 988.988 738.519 988.82 738.19C988.619 737.916 988.363 737.689 988.067 737.521C987.772 737.354 987.444 737.25 987.106 737.218C986.768 737.186 986.428 737.226 986.106 737.335C985.784 737.444 985.489 737.619 985.24 737.85C985.219 737.608 985.136 737.375 984.999 737.174C984.863 736.973 984.677 736.81 984.46 736.7C984.424 736.929 984.339 737.148 984.212 737.342C984.085 737.536 983.918 737.701 983.722 737.826C983.527 737.951 983.307 738.032 983.077 738.066C982.848 738.099 982.613 738.084 982.39 738.02C982.25 737.55 983.07 737.48 983.39 737.08C983.71 736.68 983.39 736.18 983.01 735.86C982.109 735.047 980.953 734.574 979.74 734.52C978.978 734.618 978.203 734.518 977.49 734.23C977.11 733.99 976.84 733.6 976.49 733.37C975.66 732.88 974.61 733.31 973.75 733.78C972.515 734.31 971.523 735.284 970.97 736.51C970.53 737.79 971.43 739.51 972.75 739.38C973.073 739.278 973.414 739.244 973.75 739.28C974.22 739.41 974.42 739.97 974.46 740.46C974.425 740.952 974.493 741.446 974.66 741.91C974.88 742.34 975.57 742.56 975.83 742.16C976.093 741.814 976.269 741.41 976.342 740.981C976.415 740.553 976.383 740.114 976.25 739.7C975.985 738.866 976.057 737.962 976.45 737.18C976.96 736.49 978.45 736.73 978.29 737.59C978.22 738.1 977.65 738.46 977.67 738.98C977.69 739.5 978.31 739.79 978.82 739.77C979.328 739.676 979.847 739.655 980.36 739.71C980.86 739.84 981.26 740.51 980.89 740.88C980.25 741.6 978.64 740.34 978.3 741.24C978.265 741.485 978.265 741.735 978.3 741.98C978.23 742.73 977.3 742.98 976.56 743.08C975.825 743.228 975.062 743.165 974.36 742.9C974.017 742.745 973.748 742.461 973.611 742.109C973.475 741.758 973.482 741.367 973.63 741.02C973.528 740.967 973.416 740.935 973.301 740.926C973.186 740.918 973.07 740.934 972.961 740.972C972.852 741.011 972.752 741.071 972.668 741.15C972.584 741.229 972.516 741.324 972.47 741.43C972.307 741.878 972.272 742.363 972.37 742.83C971.59 742.65 970.88 743.32 970.43 743.98C969.98 744.64 969.52 745.43 968.76 745.66C968 745.89 966.93 745.56 966.52 746.26C965.99 747.18 967.52 748.37 966.95 749.26C966.64 749.77 965.95 749.75 965.34 749.9C964.964 750.032 964.624 750.251 964.348 750.54C964.072 750.828 963.868 751.177 963.752 751.559C963.636 751.94 963.612 752.344 963.681 752.737C963.75 753.13 963.911 753.501 964.15 753.82C964.423 754.101 964.75 754.324 965.111 754.476C965.471 754.628 965.859 754.707 966.25 754.707C966.642 754.707 967.029 754.628 967.39 754.476C967.751 754.324 968.077 754.101 968.35 753.82C969.018 752.945 969.576 751.991 970.01 750.98C970.57 750.04 971.63 749.19 972.66 749.51C973.067 749.662 973.435 749.901 973.74 750.21L975.24 751.53C975.42 751.647 975.571 751.803 975.682 751.987C975.793 752.17 975.861 752.376 975.88 752.59C975.88 752.94 975.58 753.2 975.46 753.53C975.13 754.45 976.46 755.35 977.28 754.86C977.673 754.562 977.933 754.122 978.006 753.634C978.079 753.147 977.959 752.65 977.67 752.25C976.89 751.13 975.12 750.56 975.18 749.19C976.1 748.45 977.52 749.25 978.04 750.33C978.56 751.41 978.55 752.66 979.04 753.77C979.53 754.88 980.7 755.87 981.75 755.35C981.49 754.35 981.24 753.44 980.98 752.49C981.65 751.99 982.39 753.49 983.19 753.24C983.68 753.09 983.74 752.38 983.54 751.9C983.268 751.46 983.047 750.99 982.88 750.5C982.873 750.268 982.917 750.036 983.009 749.823C983.102 749.609 983.241 749.419 983.416 749.266C983.591 749.113 983.798 749.001 984.022 748.938C984.246 748.874 984.481 748.861 984.71 748.9C985.167 749.022 985.576 749.278 985.886 749.634C986.196 749.99 986.393 750.431 986.45 750.9C986.476 751.279 986.553 751.652 986.68 752.01C987.02 752.75 987.92 753.01 988.68 753.3C989.44 753.59 990.19 754.39 989.87 755.14C989.72 755.47 989.38 755.78 989.5 756.14C989.62 756.5 990.04 756.58 990.04 756.9C990.04 757.22 989.81 757.26 989.61 757.34C989.11 757.54 988.61 757.61 988.08 757.84C987.826 757.937 987.606 758.106 987.446 758.326C987.286 758.546 987.194 758.808 987.18 759.08C987.18 759.85 988.18 760.23 988.54 760.87C988.814 761.552 989.009 762.263 989.12 762.99C989.419 763.599 989.796 764.167 990.24 764.68C991.48 766.44 991.75 768.68 992.34 770.75C992.6 771.69 993.08 772.75 994.02 772.92C994.54 772.967 995.062 772.87 995.53 772.64C996.935 772.218 998.216 771.46 999.26 770.43C999.763 769.901 1000.07 769.217 1000.13 768.49C1000.19 767.763 1000.01 767.036 999.6 766.43C999.491 766.273 999.327 766.163 999.14 766.12C998.885 766.136 998.64 766.223 998.43 766.37C998.07 766.498 997.681 766.519 997.309 766.432C996.936 766.345 996.597 766.154 996.33 765.88C995.8 765.322 995.383 764.666 995.1 763.95C994.73 763.18 994.37 762.41 994 761.63C994.251 761.473 994.548 761.405 994.842 761.437C995.136 761.47 995.41 761.601 995.62 761.81C996.03 762.239 996.395 762.708 996.71 763.21C997.925 764.576 999.627 765.412 1001.45 765.54C1001.91 765.57 1002.36 765.671 1002.79 765.84C1004.12 766.48 1004.48 768.49 1005.89 768.94C1006.3 769.011 1006.7 769.108 1007.09 769.23C1007.36 769.4 1007.58 769.624 1007.75 769.888C1007.93 770.152 1008.04 770.449 1008.09 770.76C1008.29 771.919 1008.58 773.062 1008.94 774.18C1009.12 774.732 1009.46 775.222 1009.9 775.593C1010.35 775.964 1010.89 776.202 1011.47 776.28C1011.8 776.3 1012.13 776.247 1012.43 776.126C1012.74 776.005 1013.01 775.819 1013.24 775.58L1013.15 775.42C1013.22 774.36 1013.37 773.47 1013.38 772.42C1013.38 772.2 1013.31 771.91 1013.3 771.68C1013.3 770.98 1013.3 770.32 1013.3 769.62C1013.3 768.92 1013.18 768.09 1013.12 767.4C1013.06 766.71 1013 766.4 1012.93 765.87C1012.86 765.34 1012.74 764.69 1012.65 764.12C1012.39 762.4 1011.65 759.31 1011.21 757.65" fill="black"/>
</g>
<g opacity="0.3">
<path opacity="0.3" d="M995.15 797.97C994.38 798.07 993.48 797.67 992.89 798.19C992.59 798.54 992.393 798.965 992.32 799.42C992.145 800.041 991.751 800.578 991.21 800.93C990.941 801.097 990.628 801.181 990.311 801.171C989.994 801.16 989.687 801.055 989.43 800.87C989.182 800.669 989.02 800.381 988.979 800.064C988.938 799.747 989.021 799.427 989.21 799.17C989.4 798.95 989.67 798.83 989.88 798.63C990.88 797.63 990.23 795.83 991.02 794.63C991.49 793.94 992.22 793.25 992.73 792.56C993.12 792.03 993.27 791.56 993.98 791.47C997.15 790.92 998.46 797.54 995.15 797.97Z" fill="black"/>
</g>
<g opacity="0.3">
<path opacity="0.3" d="M954.74 735.61C953.74 736.17 953.28 737.26 952.54 738.09C951.8 738.92 950.48 739.51 949.63 738.8C949.238 738.422 949.011 737.904 949 737.36C948.938 736.581 949.127 735.803 949.54 735.14C949.96 734.46 950.54 733.93 950.95 733.21C951.154 732.869 951.225 732.464 951.147 732.074C951.07 731.684 950.849 731.336 950.53 731.1C950.15 730.91 949.66 730.98 949.32 730.72C948.71 730.25 949.17 729.16 949.89 728.9C950.637 728.735 951.412 728.735 952.16 728.9C954.92 729.11 956.98 727.29 959.08 725.78C960.71 724.61 964.17 723.24 966.03 724.48C966.217 724.597 966.376 724.753 966.496 724.938C966.616 725.124 966.694 725.333 966.723 725.552C966.753 725.771 966.734 725.993 966.667 726.204C966.601 726.414 966.489 726.608 966.34 726.77C966.02 727.01 965.58 727.06 965.34 727.33C965.1 727.6 964.93 728.18 964.72 728.62C964.18 729.76 962.72 730.15 962.17 731.3C961.87 732 961.99 732.87 961.53 733.47C961.113 733.896 960.562 734.165 959.97 734.23L956.35 735.07C955.788 735.164 955.245 735.347 954.74 735.61Z" fill="black"/>
</g>
<g opacity="0.3">
<path opacity="0.3" d="M921.15 756.97C921.361 756.77 921.611 756.615 921.884 756.513C922.156 756.411 922.446 756.365 922.737 756.377C923.028 756.389 923.313 756.459 923.577 756.583C923.84 756.708 924.076 756.883 924.27 757.1C924.655 757.873 924.733 758.762 924.49 759.59C924.3 760.73 924.12 761.86 923.92 763C923.83 763.327 923.83 763.673 923.92 764C924.24 764.72 925.41 764.6 925.86 764C926.25 763.293 926.357 762.463 926.16 761.68C925.949 760.907 925.949 760.093 926.16 759.32C926.94 757.5 929.62 757.8 931.16 756.63C932.03 755.782 932.712 754.76 933.16 753.63C933.74 752.55 934.72 751.48 935.92 751.54C936.33 751.54 936.73 751.72 937.14 751.71C937.427 751.668 937.698 751.551 937.926 751.372C938.153 751.192 938.33 750.956 938.438 750.687C938.547 750.418 938.583 750.125 938.542 749.838C938.502 749.551 938.388 749.279 938.21 749.05C938.014 748.882 937.839 748.691 937.69 748.48C937.607 748.266 937.601 748.029 937.672 747.811C937.743 747.592 937.887 747.405 938.08 747.28C938.465 747.048 938.901 746.91 939.35 746.88L942.42 746.42C943.55 746.26 945 745.68 944.85 744.53C944.73 743.53 943.41 743.08 943.23 742.09C943.216 741.846 943.176 741.605 943.11 741.37C942.8 740.73 941.87 740.97 941.27 741.31C941.2 741.091 941.08 740.891 940.918 740.727C940.757 740.563 940.56 740.439 940.342 740.365C940.124 740.291 939.892 740.269 939.664 740.301C939.436 740.333 939.219 740.419 939.03 740.55C938.42 741.05 938.34 741.94 938.12 742.7C937.6 744.54 936.12 745.93 934.75 747.21C934.331 747.691 933.759 748.012 933.13 748.12C932.5 748.12 931.85 747.45 932.13 746.89C932.33 746.51 932.87 746.29 932.83 745.89C932.79 745.49 931.83 745.38 931.66 744.89C932.04 743.37 933.76 742.76 935.09 741.96C936.715 740.968 937.953 739.451 938.6 737.66C938.671 737.522 938.712 737.371 938.723 737.216C938.733 737.061 938.712 736.906 938.66 736.76C938.47 736.38 937.96 736.31 937.53 736.3C936.53 736.3 935.26 736.4 934.87 737.36C934.77 737.902 934.707 738.45 934.68 739C934.31 740.59 932.15 740.75 930.83 741.68C930.362 742.106 929.86 742.494 929.33 742.84C928.687 743.064 928.01 743.169 927.33 743.15H926.97C926.54 743.73 926.14 744.33 925.74 744.93C925.34 745.53 924.97 746.16 924.6 746.78C922.86 749.741 921.438 752.879 920.36 756.14C919.97 757.28 919.63 758.45 919.36 759.63C919.09 760.81 918.81 762.02 918.59 763.24C919.006 762.258 919.308 761.231 919.49 760.18C919.674 758.956 920.258 757.828 921.15 756.97V756.97Z" fill="black"/>
</g>
<g opacity="0.4">
<path opacity="0.4" d="M1013.32 771.85C1013.32 771.52 1013.32 771.19 1013.32 770.85C1013.32 770.8 1013.32 770.75 1013.32 770.7V770.61C1013.32 770.26 1013.32 769.92 1013.26 769.61C1013.2 769.3 1013.26 768.96 1013.2 768.61C1013.2 768.12 1013.11 767.61 1013.06 767.16C1012.93 765.97 1012.75 764.78 1012.52 763.61C1012.52 763.45 1012.46 763.28 1012.43 763.12L1012.34 762.67C1012.26 762.25 1012.16 761.83 1012.07 761.41C1011.51 759.064 1010.78 756.764 1009.87 754.53C1009.65 754 1009.43 753.48 1009.2 752.97C1008.87 752.23 1008.51 751.5 1008.2 750.78C1007.89 750.06 1007.6 749.65 1007.29 749.09C1006.98 748.53 1006.54 747.8 1006.14 747.17C1005.99 746.92 1005.83 746.68 1005.67 746.43C1005.56 746.24 1005.44 746.07 1005.31 745.88L1005.13 745.63C1004.89 745.27 1004.64 744.92 1004.39 744.58L1004.13 744.22C1004.07 744.13 1004 744.05 1003.94 743.97L1003.57 743.49C1003.08 742.84 1002.57 742.19 1002.02 741.57L1001.94 741.48C1001.49 740.95 1001.02 740.48 1000.55 739.94L1000.11 739.48L999.79 739.15C998.93 738.28 998.03 737.44 997.1 736.63L996.68 736.27L996.08 735.76C995.71 735.45 995.32 735.15 994.94 734.85L994.63 734.61L994.07 734.19C992.533 733.066 990.93 732.034 989.27 731.1C989.58 731.3 989.88 731.5 990.18 731.72H990.25L991.25 732.4L991.82 732.82L992.13 733.07L993.27 733.97L993.87 734.48L994.29 734.84C995.22 735.65 996.11 736.49 996.98 737.36C997.097 737.466 997.208 737.58 997.31 737.7C997.94 738.34 998.55 739 999.14 739.7L999.21 739.79L999.41 740.03C1000.01 740.73 1000.59 741.46 1001.14 742.19L1001.33 742.44L1001.59 742.8L1002.11 743.53L1002.51 744.1L1002.87 744.65C1003.11 745.03 1003.35 745.4 1003.58 745.78C1003.81 746.16 1004.18 746.78 1004.46 747.27C1004.84 747.94 1005.2 748.61 1005.55 749.27C1005.9 749.93 1006.15 750.5 1006.43 751.14C1006.71 751.78 1006.9 752.14 1007.11 752.72C1007.22 752.99 1007.33 753.25 1007.43 753.53C1008.35 755.91 1009.07 758.361 1009.59 760.86L1009.68 761.32C1009.68 761.45 1009.68 761.58 1009.75 761.71C1009.91 762.48 1010.04 763.25 1010.14 764.03C1010.21 764.47 1010.26 764.91 1010.3 765.36C1010.4 766.16 1010.46 766.96 1010.51 767.78C1010.51 768.11 1010.51 768.44 1010.56 768.78C1010.56 769.193 1010.56 769.603 1010.56 770.01V771.01C1010.56 771.28 1010.56 771.54 1010.56 771.81C1010.56 772.81 1010.48 773.76 1010.39 774.71C1010.39 775.26 1010.29 775.81 1010.22 776.35C1010.23 776.457 1010.23 776.564 1010.22 776.67C1010.1 777.59 1009.97 778.5 1009.8 779.39C1009.74 779.65 1009.69 779.92 1009.64 780.18C1008.72 784.448 1007.21 788.568 1005.15 792.42C1005.15 792.42 1005.15 792.47 1005.15 792.49C1004.86 793.05 1004.56 793.59 1004.26 794.14C1003.42 795.613 1002.49 797.038 1001.49 798.41C1000.49 799.798 999.425 801.133 998.29 802.41C997.59 803.17 996.87 803.92 996.13 804.65C994.579 806.159 992.929 807.562 991.19 808.85V808.85C988.538 810.807 985.689 812.483 982.69 813.85V813.85C981.76 814.28 980.81 814.67 979.84 815.03C979.34 815.22 978.84 815.41 978.33 815.58C977.55 815.84 976.76 816.09 975.97 816.31C974.256 816.779 972.516 817.149 970.76 817.42C963.21 818.651 955.475 818.043 948.21 815.65C947.21 815.32 946.21 814.96 945.21 814.55C944.43 814.24 943.65 813.9 942.88 813.55C942.11 813.2 941.37 812.8 940.63 812.4C940.3 812.23 939.98 812.04 939.63 811.86C940.14 812.2 940.63 812.52 941.17 812.86C941.4 813.01 941.61 813.13 941.83 813.26L941.96 813.33C942.026 813.384 942.1 813.428 942.18 813.46C942.6 813.72 943.03 813.95 943.46 814.18C944.982 814.963 946.548 815.657 948.15 816.26C949.15 816.67 950.15 817.03 951.15 817.36C960.126 820.316 969.779 820.535 978.88 817.99L979.66 817.76C980.187 817.613 980.717 817.443 981.25 817.25C981.75 817.09 982.25 816.9 982.76 816.71C987.501 814.916 991.923 812.373 995.86 809.18C997.761 807.652 999.543 805.98 1001.19 804.18C1001.84 803.45 1002.47 802.71 1003.08 801.95C1004.29 800.439 1005.4 798.856 1006.41 797.21C1006.68 796.77 1006.95 796.33 1007.2 795.88C1007.45 795.43 1007.8 794.8 1008.09 794.24C1008.56 793.34 1009 792.43 1009.41 791.49C1011.13 787.595 1012.3 783.484 1012.91 779.27C1012.91 779.11 1012.91 778.94 1012.98 778.77C1013.05 778.6 1013.03 778.38 1013.06 778.19C1013.09 778 1013.13 777.63 1013.16 777.35L1013.22 776.51C1013.22 776.32 1013.22 776.13 1013.28 775.94C1013.28 775.52 1013.28 775.11 1013.35 774.69C1013.42 774.27 1013.35 774 1013.35 773.69C1013.35 773.38 1013.35 772.87 1013.35 772.46C1013.33 772.2 1013.33 772.03 1013.32 771.85Z" fill="black"/>
</g>
</g>
</g>
<defs>
<clipPath id="clip0_5062_1299">
<rect width="1440" height="900" rx="8" fill="white"/>
</clipPath>
<clipPath id="clip1_5062_1299">
<rect width="243.66" height="214.57" fill="white" transform="translate(1046 541)"/>
</clipPath>
<clipPath id="clip2_5062_1299">
<rect width="183.56" height="92.62" fill="white" transform="translate(365 716)"/>
</clipPath>
<clipPath id="clip3_5062_1299">
<rect width="84" height="145" fill="white" transform="translate(511 684)"/>
</clipPath>
<clipPath id="clip4_5062_1299">
<rect width="235.33" height="97.53" fill="white" transform="translate(998 187)"/>
</clipPath>
<clipPath id="clip5_5062_1299">
<rect width="95.33" height="95.75" fill="white" transform="translate(918 724)"/>
</clipPath>
</defs>
</svg>
