<svg width="300" height="254" viewBox="0 0 300 254" fill="none" xmlns="http://www.w3.org/2000/svg">
<path d="M138.73 253.932C206.814 253.932 262.006 198.739 262.006 130.656C262.006 62.5728 206.814 7.38037 138.73 7.38037C70.647 7.38037 15.4546 62.5728 15.4546 130.656C15.4546 198.739 70.647 253.932 138.73 253.932Z" fill="#252B65"/>
<path d="M277.332 79.7849C283.163 79.7849 287.892 75.0569 287.892 69.2244C287.892 63.3919 283.163 58.6638 277.332 58.6638C271.497 58.6638 266.771 63.3919 266.771 69.2244C266.771 75.0569 271.497 79.7849 277.332 79.7849Z" fill="#0C8FEA"/>
<path d="M292.788 38.5746C296.77 38.5746 300 35.3456 300 31.3625C300 27.3793 296.77 24.1504 292.788 24.1504C288.803 24.1504 285.576 27.3793 285.576 31.3625C285.576 35.3456 288.803 38.5746 292.788 38.5746Z" fill="#F58220"/>
<path d="M30.1864 26.8558C37.5836 26.8558 43.5802 20.8592 43.5802 13.462C43.5802 6.06477 37.5836 0.0681152 30.1864 0.0681152C22.7891 0.0681152 16.7925 6.06477 16.7925 13.462C16.7925 20.8592 22.7891 26.8558 30.1864 26.8558Z" fill="#F58220"/>
<path d="M186.401 63.4974H120.733V38.576H206.814C206.972 38.576 207.13 38.576 207.289 38.576C220.739 38.8936 231.657 50.0049 231.657 63.4974H203.174" fill="#CCD4E2"/>
<path d="M209.188 38.5769C204.124 38.8945 199.377 40.9579 196.054 44.4501C195.737 44.7675 195.421 45.085 195.105 45.5613C192.098 49.0535 189.883 53.6569 189.883 58.5776V206.837C189.883 220.646 178.806 231.758 165.039 231.758H44.1465V57.4664C44.4628 52.3868 46.3616 47.7837 49.6846 44.4501C53.3241 40.7993 58.2296 38.5769 63.7677 38.5769H185.452H208.555C208.713 38.5769 208.871 38.5769 209.188 38.5769Z" fill="url(#paint0_linear_5077_1046)"/>
<path d="M165.833 72.544H129.913C128.647 72.544 127.54 71.4328 127.54 70.163C127.54 68.8929 128.647 67.782 129.913 67.782H165.833C167.099 67.782 168.206 68.8929 168.206 70.163C168.206 71.4328 167.257 72.544 165.833 72.544Z" fill="#B3BFD3"/>
<path d="M112.982 72.544H66.1436C64.8776 72.544 63.77 71.4328 63.77 70.163C63.77 68.8929 64.8776 67.782 66.1436 67.782H113.14C114.406 67.782 115.513 68.8929 115.513 70.163C115.513 71.4328 114.406 72.544 112.982 72.544Z" fill="#B3BFD3"/>
<path d="M143.043 96.0377H96.3633C95.0976 96.0377 93.9897 94.9265 93.9897 93.6567C93.9897 92.3868 95.0976 91.2756 96.3633 91.2756H143.043C144.309 91.2756 145.417 92.3868 145.417 93.6567C145.575 94.9265 144.467 96.0377 143.043 96.0377Z" fill="#B3BFD3"/>
<path d="M81.3343 96.0377H66.1436C64.8776 96.0377 63.77 94.9265 63.77 93.6567C63.77 92.3868 64.8776 91.2756 66.1436 91.2756H81.3343C82.6 91.2756 83.7078 92.3868 83.7078 93.6567C83.7078 94.9265 82.6 96.0377 81.3343 96.0377Z" fill="#D4DBEC"/>
<path d="M165.834 119.531H137.193C135.927 119.531 134.819 118.42 134.819 117.15C134.819 115.88 135.927 114.769 137.193 114.769H165.834C167.1 114.769 168.207 115.88 168.207 117.15C168.207 118.42 167.258 119.531 165.834 119.531Z" fill="#D4DBEC"/>
<path d="M123.425 119.531H66.1436C64.8776 119.531 63.77 118.42 63.77 117.15C63.77 115.88 64.8776 114.769 66.1436 114.769H123.425C124.691 114.769 125.799 115.88 125.799 117.15C125.799 118.42 124.849 119.531 123.425 119.531Z" fill="#B3BFD3"/>
<path d="M143.045 143.023H111.556C110.29 143.023 109.183 141.911 109.183 140.642C109.183 139.371 110.29 138.26 111.556 138.26H143.045C144.311 138.26 145.419 139.371 145.419 140.642C145.577 141.911 144.47 143.023 143.045 143.023Z" fill="#B3BFD3"/>
<path d="M97.7907 143.023H66.1436C64.8776 143.023 63.77 141.911 63.77 140.642C63.77 139.371 64.8776 138.26 66.1436 138.26H97.9491C99.2149 138.26 100.323 139.371 100.323 140.642C100.323 141.911 99.2149 143.023 97.7907 143.023Z" fill="#D4DBEC"/>
<path d="M165.833 166.516H143.838C142.572 166.516 141.465 165.405 141.465 164.135C141.465 162.865 142.572 161.754 143.838 161.754H165.833C167.099 161.754 168.207 162.865 168.207 164.135C168.207 165.405 167.257 166.516 165.833 166.516Z" fill="#B3BFD3"/>
<path d="M129.595 166.516H92.7261C91.4601 166.516 90.3525 165.405 90.3525 164.135C90.3525 162.865 91.4601 161.754 92.7261 161.754H129.595C130.861 161.754 131.969 162.865 131.969 164.135C131.969 165.405 130.861 166.516 129.595 166.516Z" fill="#D4DBEC"/>
<path d="M78.9607 166.516H66.1436C64.8776 166.516 63.77 165.405 63.77 164.135C63.77 162.865 64.8776 161.754 66.1436 161.754H78.9607C80.2265 161.754 81.3343 162.865 81.3343 164.135C81.3343 165.405 80.2265 166.516 78.9607 166.516Z" fill="#B3BFD3"/>
<path d="M143.047 190.01H121.21C119.944 190.01 118.836 188.899 118.836 187.629C118.836 186.359 119.944 185.248 121.21 185.248H143.047C144.312 185.248 145.42 186.359 145.42 187.629C145.578 188.899 144.471 190.01 143.047 190.01Z" fill="#B3BFD3"/>
<path d="M106.81 190.01H66.1436C64.8776 190.01 63.77 188.899 63.77 187.629C63.77 186.359 64.8776 185.248 66.1436 185.248H106.81C108.076 185.248 109.184 186.359 109.184 187.629C109.184 188.899 108.076 190.01 106.81 190.01Z" fill="#D4DBEC"/>
<path d="M111.873 212.072H143.837C143.837 217.469 146.053 222.389 149.534 225.882C153.015 229.532 157.921 231.596 163.301 231.596H19.4632C14.0832 231.596 9.17775 229.374 5.69655 225.882C2.21532 222.389 0 217.469 0 212.072H94.6258C94.6258 212.072 112.19 212.23 111.873 212.072Z" fill="#CCD4E2"/>
<path d="M249.094 196.87L229.116 176.906L233.696 172.326L253.659 192.306L249.094 196.87Z" fill="#858B9B"/>
<path d="M256.039 203.894L240.72 188.574C239.441 187.295 239.441 185.21 240.72 183.931C241.999 182.651 244.085 182.651 245.363 183.931L260.683 199.251C261.963 200.53 261.963 202.615 260.683 203.894C259.405 205.173 257.319 205.173 256.039 203.894Z" fill="#858B9B"/>
<path d="M254.949 204.873L235.239 185.163C234.782 184.704 234.782 183.962 235.239 183.488L240.278 178.45C240.736 177.992 241.478 177.992 241.952 178.45L261.661 198.161C262.12 198.619 262.12 199.361 261.661 199.835L256.623 204.873C256.149 205.331 255.408 205.331 254.949 204.873Z" fill="url(#paint1_linear_5077_1046)"/>
<path d="M206.499 112.578C185.588 112.578 168.641 129.525 168.641 150.436C168.641 171.331 185.588 188.294 206.483 188.294C227.394 188.294 244.339 171.347 244.339 150.436C244.339 129.525 227.394 112.578 206.499 112.578ZM206.499 181.281C189.71 181.281 176.112 167.462 176.112 150.42C176.112 133.379 189.71 119.575 206.499 119.575C223.288 119.575 236.886 133.395 236.886 150.436C236.886 167.478 223.272 181.281 206.499 181.281Z" fill="url(#paint2_linear_5077_1046)"/>
<defs>
<linearGradient id="paint0_linear_5077_1046" x1="126.613" y1="34.1085" x2="126.613" y2="233.84" gradientUnits="userSpaceOnUse">
<stop stop-color="#FDFEFF"/>
<stop offset="0.9964" stop-color="#ECF0F5"/>
</linearGradient>
<linearGradient id="paint1_linear_5077_1046" x1="234.884" y1="191.664" x2="262.012" y2="191.664" gradientUnits="userSpaceOnUse">
<stop stop-color="#B0BACC"/>
<stop offset="1" stop-color="#969EAE"/>
</linearGradient>
<linearGradient id="paint2_linear_5077_1046" x1="168.606" y1="150.444" x2="244.355" y2="150.444" gradientUnits="userSpaceOnUse">
<stop stop-color="#B0BACC"/>
<stop offset="1" stop-color="#969EAE"/>
</linearGradient>
</defs>
</svg>
