<svg width="225" height="224" viewBox="0 0 225 224" fill="none" xmlns="http://www.w3.org/2000/svg">
<path d="M56.5162 196H168.481C171.559 196.007 174.525 194.845 176.786 192.745C186.218 183.959 193.764 173.325 198.959 161.497C204.154 149.669 206.889 136.897 206.996 123.966C207.479 71.3873 164.994 28.1243 112.728 28.0003C60.4323 27.8761 18.0001 70.4878 18.0001 123.07C17.9851 136.157 20.6638 149.105 25.8673 161.1C31.0708 173.095 38.6864 183.876 48.2348 192.764C50.491 194.854 53.4489 196.01 56.5162 196Z" fill="url(#paint0_linear_5184_98777)"/>
<path d="M138.474 28.8264H130.893C129.332 28.8126 127.807 28.3557 126.495 27.509C125.183 26.6622 124.138 25.4603 123.483 24.0432C122.579 22.1463 121.156 20.5444 119.379 19.423C117.602 18.3016 115.544 17.7066 113.442 17.707H111.558V17.8692C109.791 18.1738 108.123 18.9007 106.698 19.9881C105.272 21.0755 104.13 22.4912 103.368 24.1149C102.714 25.5201 101.673 26.7096 100.367 27.5441C99.0602 28.3786 97.5434 28.8234 95.9934 28.8264H88.4102C87.8769 28.8264 87.3484 28.9314 86.8553 29.1357C86.3622 29.3399 85.9142 29.6392 85.5371 30.0165C85.1596 30.3938 84.8603 30.8418 84.656 31.3348C84.4521 31.8278 84.3467 32.3562 84.3467 32.8898V39.457C84.3467 40.5347 84.775 41.5683 85.5371 42.3303C86.2992 43.0924 87.3326 43.5205 88.4102 43.5205H138.474C139.551 43.5205 140.585 43.0924 141.347 42.3303C142.109 41.5683 142.537 40.5347 142.537 39.457V32.8898C142.537 31.8121 142.109 30.7786 141.347 30.0165C140.585 29.2545 139.552 28.8264 138.474 28.8264Z" fill="#417A93"/>
<path opacity="0.15" d="M138.474 28.8264H130.893C129.332 28.8126 127.807 28.3557 126.495 27.509C125.183 26.6622 124.138 25.4603 123.483 24.0432C122.579 22.1463 121.156 20.5444 119.379 19.423C117.602 18.3016 115.544 17.7066 113.442 17.707H111.558V17.8692C109.791 18.1738 108.123 18.9007 106.698 19.9881C105.272 21.0755 104.13 22.4912 103.368 24.1149C102.714 25.5201 101.673 26.7096 100.367 27.5441C99.0602 28.3786 97.5434 28.8234 95.9934 28.8264H88.4102C87.8769 28.8264 87.3484 28.9314 86.8553 29.1357C86.3622 29.3399 85.9142 29.6392 85.5371 30.0165C85.1596 30.3938 84.8603 30.8418 84.656 31.3348C84.4521 31.8278 84.3467 32.3562 84.3467 32.8898V39.457C84.3467 40.5347 84.775 41.5683 85.5371 42.3303C86.2992 43.0924 87.3326 43.5205 88.4102 43.5205H138.474C139.551 43.5205 140.585 43.0924 141.347 42.3303C142.109 41.5683 142.537 40.5347 142.537 39.457V32.8898C142.537 31.8121 142.109 30.7786 141.347 30.0165C140.585 29.2545 139.552 28.8264 138.474 28.8264Z" fill="black"/>
<path d="M166.2 36.5615H61.8072C58.6922 36.5615 56.167 39.0867 56.167 42.2016V190.38C56.167 193.495 58.6922 196.02 61.8072 196.02H166.2C169.315 196.02 171.84 193.495 171.84 190.38V42.2016C171.84 39.0867 169.315 36.5615 166.2 36.5615Z" fill="#D4D9E3"/>
<path d="M163.033 36.5615H58.6402C55.5252 36.5615 53 39.0867 53 42.2016V190.38C53 193.495 55.5252 196.02 58.6402 196.02H163.033C166.148 196.02 168.673 193.495 168.673 190.38V42.2016C168.673 39.0867 166.148 36.5615 163.033 36.5615Z" fill="#E5E9F1"/>
<path d="M151.59 186.801H70.5591C68.5711 186.801 66.664 186.011 65.2583 184.605C63.8522 183.199 63.0625 181.292 63.0625 179.304V53.0337C63.0625 51.0457 63.8522 49.1386 65.2583 47.7329C66.664 46.3272 68.5711 45.5371 70.5591 45.5371H134.872L159.087 69.7519V179.304C159.087 180.288 158.893 181.263 158.516 182.173C158.14 183.082 157.587 183.909 156.891 184.605C156.195 185.301 155.368 185.853 154.459 186.23C153.549 186.607 152.575 186.801 151.59 186.801Z" fill="white"/>
<path d="M159.39 69.7519H140.688C139.226 69.7519 137.823 69.1713 136.79 68.1375C135.756 67.1032 135.175 65.701 135.175 64.2389V45.5371L159.39 69.7519Z" fill="#D4D9E3"/>
<path d="M79.7802 68.8848H111.153C111.917 68.8848 112.649 69.188 113.189 69.7278C113.728 70.2677 114.032 70.9996 114.032 71.7631C114.032 72.5261 113.728 73.2585 113.189 73.7979C112.649 74.3378 111.917 74.641 111.153 74.641H79.7802C79.0172 74.641 78.2848 74.3378 77.7454 73.7979C77.2055 73.2585 76.9023 72.5261 76.9023 71.7631C76.9023 71.3851 76.9767 71.0106 77.1215 70.6615C77.2659 70.3123 77.4781 69.9951 77.7454 69.7278C78.0123 69.4605 78.3299 69.2488 78.679 69.104C79.0282 68.9591 79.4022 68.8848 79.7802 68.8848Z" fill="#E5E9F1"/>
<path d="M79.7802 87.7666H143.132C143.895 87.7666 144.628 88.0698 145.167 88.6097C145.707 89.1495 146.01 89.8815 146.01 90.6449C146.01 91.4084 145.707 92.1403 145.167 92.6802C144.628 93.2196 143.895 93.5232 143.132 93.5232H79.7802C79.0172 93.5232 78.2848 93.2196 77.7454 92.6802C77.2055 92.1403 76.9023 91.4084 76.9023 90.6449C76.9023 90.2669 76.9767 89.8929 77.1215 89.5433C77.2659 89.1942 77.4781 88.877 77.7454 88.6097C78.0123 88.3424 78.3299 88.1306 78.679 87.9858C79.0282 87.8414 79.4022 87.7666 79.7802 87.7666Z" fill="#E5E9F1"/>
<path d="M143.132 106.648H79.7802C78.1908 106.648 76.9023 107.937 76.9023 109.526C76.9023 111.116 78.1908 112.405 79.7802 112.405H143.132C144.722 112.405 146.01 111.116 146.01 109.526C146.01 107.937 144.722 106.648 143.132 106.648Z" fill="#E5E9F1"/>
<path d="M143.132 125.529H79.7802C78.1908 125.529 76.9023 126.818 76.9023 128.407C76.9023 129.997 78.1908 131.285 79.7802 131.285H143.132C144.722 131.285 146.01 129.997 146.01 128.407C146.01 126.818 144.722 125.529 143.132 125.529Z" fill="#E5E9F1"/>
<path d="M143.364 144.41H79.7802C78.1908 144.41 76.9023 145.699 76.9023 147.288C76.9023 148.878 78.1908 150.166 79.7802 150.166H143.364C144.953 150.166 146.242 148.878 146.242 147.288C146.242 145.699 144.953 144.41 143.364 144.41Z" fill="#E5E9F1"/>
<path d="M79.7802 163.292H114.032C114.41 163.292 114.784 163.366 115.133 163.511C115.482 163.656 115.8 163.868 116.067 164.135C116.334 164.402 116.546 164.72 116.691 165.069C116.835 165.418 116.91 165.792 116.91 166.17C116.91 166.548 116.835 166.922 116.691 167.271C116.546 167.621 116.334 167.938 116.067 168.206C115.8 168.473 115.482 168.685 115.133 168.829C114.784 168.974 114.41 169.048 114.032 169.048H79.7802C79.4022 169.048 79.0282 168.974 78.679 168.829C78.3299 168.685 78.0123 168.473 77.7454 168.206C77.4781 167.938 77.2659 167.621 77.1215 167.271C76.9767 166.922 76.9023 166.548 76.9023 166.17C76.9023 165.407 77.2055 164.675 77.7454 164.135C78.2848 163.595 79.0172 163.292 79.7802 163.292Z" fill="#E5E9F1"/>
<path d="M136.44 28.8264H128.859C127.298 28.8126 125.772 28.3557 124.46 27.509C123.148 26.6622 122.104 25.4603 121.449 24.0432C120.544 22.1466 119.121 20.5448 117.344 19.4235C115.567 18.3022 113.509 17.707 111.408 17.707C109.307 17.707 107.248 18.3022 105.471 19.4235C103.694 20.5448 102.271 22.1466 101.367 24.0432C100.712 25.4603 99.6673 26.6622 98.3552 27.509C97.0436 28.3557 95.518 28.8126 93.957 28.8264H86.376C85.8422 28.8264 85.3137 28.9314 84.8211 29.1357C84.3281 29.3399 83.8801 29.6392 83.5025 30.0165C83.1254 30.3938 82.8261 30.8418 82.6218 31.3348C82.4175 31.8278 82.3125 32.3562 82.3125 32.8898V48.3753C82.3125 49.4529 82.7408 50.4867 83.5025 51.2488C84.2646 52.0105 85.2984 52.4388 86.376 52.4388H136.44C136.973 52.4388 137.501 52.3338 137.994 52.1295C138.487 51.9252 138.936 51.6259 139.313 51.2488C139.69 50.8712 139.989 50.4232 140.194 49.9302C140.398 49.4371 140.503 48.909 140.503 48.3753V32.8899C140.503 31.8121 140.075 30.7786 139.313 30.0165C138.551 29.2545 137.517 28.8264 136.44 28.8264Z" fill="#417A93"/>
<path opacity="0.2" d="M134.101 46.4346H89.1638C88.2796 46.4346 87.5625 47.1516 87.5625 48.0363C87.5625 48.9204 88.2796 49.6375 89.1638 49.6375H134.101C134.985 49.6375 135.702 48.9204 135.702 48.0363C135.702 47.1516 134.985 46.4346 134.101 46.4346Z" fill="white"/>
<path d="M148.086 188.408L145.5 196.603C145.021 198.122 144.433 199.604 143.739 201.037L143.388 201.761C143.324 201.894 143.215 202 143.08 202.06C142.944 202.12 142.793 202.13 142.65 202.089C142.509 202.048 142.386 201.958 142.304 201.835C142.222 201.711 142.187 201.563 142.203 201.416C145.039 178.06 159.525 149.834 180.439 119.679L181.495 124.291L177.2 133.768" fill="#D4D9E3"/>
<path d="M154.351 137.91C154.944 140.22 155.814 142.451 156.941 144.553C154.855 135.499 156.732 126.672 162.648 118.076C162.885 117.728 163.211 117.449 163.594 117.271C163.976 117.093 164.399 117.022 164.819 117.065C165.238 117.108 165.638 117.264 165.976 117.517C166.314 117.769 166.577 118.108 166.738 118.499C167.249 119.819 167.99 121.04 168.925 122.104C175.417 109.283 183.739 100.841 195.538 100.72C195.881 100.716 196.221 100.788 196.534 100.93C196.846 101.072 197.123 101.282 197.346 101.543C197.569 101.804 197.731 102.111 197.822 102.442C197.913 102.773 197.93 103.12 197.872 103.458C195.869 115.36 189.896 125.641 180.305 134.443C184.271 133.845 188.093 132.522 191.58 130.54C191.792 130.424 192.036 130.382 192.274 130.421C192.512 130.46 192.73 130.578 192.893 130.756C193.056 130.933 193.155 131.161 193.174 131.401C193.192 131.641 193.129 131.881 192.995 132.082C183.693 146.016 172.622 157.02 158.842 163.535C161.576 163.835 164.428 163.029 167.369 161.384C167.645 161.231 167.961 161.167 168.275 161.2C168.588 161.233 168.884 161.361 169.123 161.567C169.362 161.773 169.532 162.047 169.61 162.353C169.688 162.658 169.671 162.98 169.56 163.276C165.187 174.792 157.688 182.903 148.079 188.716C151.971 174.917 159.868 156.943 171.925 136.842C174.178 133.089 176.169 129.183 177.883 125.154C177.929 125.044 177.932 124.92 177.893 124.807C177.853 124.694 177.773 124.599 177.667 124.543C177.562 124.486 177.439 124.47 177.323 124.498C177.207 124.526 177.105 124.597 177.038 124.696C163.295 145.239 152.276 167.479 144.256 190.858C138.852 183.782 136.504 174.857 138.941 163.04C139.029 162.635 139.224 162.261 139.505 161.957C139.786 161.652 140.144 161.427 140.54 161.307C140.937 161.186 141.358 161.173 141.762 161.269C142.165 161.366 142.535 161.568 142.834 161.855C143.783 162.749 144.852 163.505 146.011 164.103C143.448 154.257 144.209 145.117 150.232 137.098C150.495 136.747 150.852 136.478 151.262 136.321C151.671 136.164 152.116 136.126 152.547 136.211C152.977 136.296 153.374 136.5 153.694 136.801C154.013 137.101 154.24 137.486 154.351 137.91Z" fill="#417A93"/>
<defs>
<linearGradient id="paint0_linear_5184_98777" x1="112.5" y1="28" x2="112.5" y2="196" gradientUnits="userSpaceOnUse">
<stop stop-color="#FBFDFE"/>
<stop offset="1" stop-color="#F0F5FA"/>
</linearGradient>
</defs>
</svg>
